<?xml version="1.0" encoding="UTF-8" standalone="no"?>
<!DOCTYPE svg PUBLIC "-//W3C//DTD SVG 1.1//EN" "http://www.w3.org/Graphics/SVG/1.1/DTD/svg11.dtd">
<svg width="100%" height="100%" viewBox="0 0 2134 2134" version="1.1" xmlns="http://www.w3.org/2000/svg" xmlns:xlink="http://www.w3.org/1999/xlink" xml:space="preserve" xmlns:serif="http://www.serif.com/" style="fill-rule:evenodd;clip-rule:evenodd;stroke-linecap:round;stroke-linejoin:round;stroke-miterlimit:1.5;">
    <g transform="matrix(4.16667,0,0,4.16667,-2225.79,0)">
        <g id="Dark-Clock" serif:id="Dark Clock" transform="matrix(1,0,0,1,534.189,0)">
            <rect x="0" y="0" width="512" height="512" style="fill-opacity:0;"/>
            <clipPath id="_clip1">
                <rect x="0" y="0" width="512" height="512"/>
            </clipPath>
            <g clip-path="url(#_clip1)">
                <g id="Reflect" transform="matrix(1.14815,0,0,1.06897,-47.1111,-43.3103)">
                    <ellipse cx="264" cy="280" rx="216" ry="232" style="fill:rgb(28,28,28);"/>
                </g>
                <g id="Icon-Grid" serif:id="Icon Grid" transform="matrix(8,0,0,8,-192,-704)">
                    <path d="M24,120L88,120" style="fill:none;"/>
                    <g transform="matrix(1.64706,0,0,2,-34.5882,-112)">
                        <ellipse cx="55" cy="116" rx="17" ry="14" style="fill:white;fill-opacity:0;"/>
                    </g>
                    <path d="M24,96L88,96" style="fill:none;"/>
                    <path d="M32,88L32,152" style="fill:none;"/>
                    <path d="M88,144L24,144" style="fill:none;"/>
                    <path d="M80,152C80.009,130.632 80.028,109.222 80,88" style="fill:white;fill-opacity:0;"/>
                    <g transform="matrix(2.33333,0,0,2.33333,-74.6667,-160)">
                        <circle cx="56" cy="120" r="6" style="fill:white;fill-opacity:0;"/>
                    </g>
                    <g transform="matrix(1,0,0,1.03226,0,-2.83871)">
                        <rect x="24" y="88" width="64" height="62" style="fill:white;fill-opacity:0;"/>
                    </g>
                </g>
                <circle cx="256" cy="256" r="224" style="fill:rgb(62,62,62);"/>
                <g id="Tiny-Indicators" serif:id="Tiny Indicators">
                    <g transform="matrix(0.707107,0.707107,-0.707107,0.707107,-121.728,-483.767)">
                        <path d="M790.189,56L790.189,40" style="fill:none;stroke:white;stroke-opacity:0.58;stroke-width:1px;"/>
                    </g>
                    <g transform="matrix(0.258819,0.965926,-0.965926,0.258819,298.761,-573.521)">
                        <path d="M790.189,56L790.189,40" style="fill:none;stroke:white;stroke-opacity:0.58;stroke-width:1px;"/>
                    </g>
                    <g transform="matrix(-0.258819,0.965926,-0.965926,-0.258819,707.793,-441.006)">
                        <path d="M790.189,56L790.189,40" style="fill:none;stroke:white;stroke-opacity:0.58;stroke-width:1px;"/>
                    </g>
                    <g transform="matrix(-0.707107,0.707107,-0.707107,-0.707107,995.767,-121.728)">
                        <path d="M790.189,56L790.189,40" style="fill:none;stroke:white;stroke-opacity:0.58;stroke-width:1px;"/>
                    </g>
                    <g transform="matrix(-0.965926,0.258819,-0.258819,-0.965926,1085.52,298.761)">
                        <path d="M790.189,56L790.189,40" style="fill:none;stroke:white;stroke-opacity:0.58;stroke-width:1px;"/>
                    </g>
                    <g transform="matrix(-0.965926,-0.258819,0.258819,-0.965926,953.006,707.793)">
                        <path d="M790.189,56L790.189,40" style="fill:none;stroke:white;stroke-opacity:0.58;stroke-width:1px;"/>
                    </g>
                    <g transform="matrix(-0.707107,-0.707107,0.707107,-0.707107,633.728,995.767)">
                        <path d="M790.189,56L790.189,40" style="fill:none;stroke:white;stroke-opacity:0.58;stroke-width:1px;"/>
                    </g>
                </g>
                <g id="Indicators">
                    <g transform="matrix(-0.866025,-0.5,0.866025,-1.5,330.022,640.21)">
                        <rect x="248" y="48" width="16" height="8" style="fill:rgb(240,240,240);fill-opacity:0.71;"/>
                    </g>
                    <g transform="matrix(-0.5,-0.866025,1.5,-0.866025,128.077,625.67)">
                        <rect x="248" y="48" width="16" height="8" style="fill:rgb(240,240,240);fill-opacity:0.71;"/>
                    </g>
                    <g transform="matrix(0.5,-0.866025,1.5,0.866025,-127.923,329.945)">
                        <rect x="248" y="48" width="16" height="8" style="fill:rgb(240,240,240);fill-opacity:0.71;"/>
                    </g>
                    <g transform="matrix(0.866025,-0.5,0.866025,1.5,-113.383,128)">
                        <rect x="248" y="48" width="16" height="8" style="fill:rgb(240,240,240);fill-opacity:0.71;"/>
                    </g>
                    <g transform="matrix(-0.5,0.866025,-1.5,-0.866025,640.287,182.265)">
                        <rect x="248" y="48" width="16" height="8" style="fill:rgb(240,240,240);fill-opacity:0.71;"/>
                    </g>
                    <g transform="matrix(-0.866025,0.5,-0.866025,-1.5,625.747,384.21)">
                        <rect x="248" y="48" width="16" height="8" style="fill:rgb(240,240,240);fill-opacity:0.71;"/>
                    </g>
                    <g transform="matrix(0.5,0.866025,-1.5,0.866025,384.287,-113.46)">
                        <rect x="248" y="48" width="16" height="8" style="fill:rgb(240,240,240);fill-opacity:0.71;"/>
                    </g>
                    <g transform="matrix(0.866025,0.5,-0.866025,1.5,182.342,-128)">
                        <rect x="248" y="48" width="16" height="8" style="fill:rgb(240,240,240);fill-opacity:0.71;"/>
                    </g>
                    <g transform="matrix(0.405356,0,0,2.40537,128.229,-544.54)">
                        <path d="M374.415,253.824C374.415,251.53 363.36,249.667 349.745,249.667L280.67,249.667C267.054,249.667 256,251.53 256,253.824L256,262.139C256,264.434 267.054,266.296 280.67,266.296L349.745,266.296C363.36,266.296 374.415,264.434 374.415,262.139L374.415,253.824Z" style="fill:white;fill-opacity:0.09;"/>
                    </g>
                </g>
                <g id="Numbers">
                    <g transform="matrix(3.17302,0,0,3.17302,-572.42,221.44)">
                        <g transform="matrix(9.70312,0,0,9.70312,257.919,71.4022)">
                            <path d="M0.32,0.015C0.275,0.015 0.233,0.005 0.196,-0.015C0.158,-0.034 0.128,-0.063 0.107,-0.1C0.085,-0.136 0.074,-0.18 0.074,-0.229C0.074,-0.264 0.079,-0.298 0.09,-0.332C0.101,-0.365 0.123,-0.414 0.158,-0.477C0.193,-0.54 0.248,-0.635 0.324,-0.76L0.42,-0.704C0.355,-0.605 0.303,-0.523 0.265,-0.456C0.262,-0.451 0.26,-0.447 0.257,-0.442C0.254,-0.437 0.252,-0.434 0.25,-0.432C0.261,-0.442 0.275,-0.45 0.293,-0.456C0.311,-0.462 0.332,-0.465 0.355,-0.465C0.399,-0.465 0.438,-0.455 0.472,-0.434C0.506,-0.413 0.532,-0.385 0.551,-0.35C0.569,-0.315 0.578,-0.277 0.578,-0.236C0.578,-0.184 0.567,-0.139 0.545,-0.101C0.523,-0.063 0.493,-0.034 0.454,-0.015C0.415,0.005 0.37,0.015 0.32,0.015ZM0.327,-0.083C0.369,-0.083 0.402,-0.096 0.427,-0.123C0.451,-0.15 0.463,-0.184 0.463,-0.226C0.463,-0.27 0.451,-0.305 0.426,-0.331C0.401,-0.356 0.369,-0.369 0.33,-0.369C0.287,-0.369 0.253,-0.356 0.228,-0.33C0.202,-0.304 0.189,-0.269 0.189,-0.224C0.189,-0.183 0.202,-0.15 0.229,-0.123C0.255,-0.096 0.288,-0.083 0.327,-0.083Z" style="fill:rgb(155,155,155);fill-opacity:0.47;fill-rule:nonzero;"/>
                        </g>
                    </g>
                    <g transform="matrix(3.17302,0,0,3.17302,-388.215,40.5234)">
                        <g transform="matrix(9.70312,0,0,9.70312,257.963,71.4022)">
                            <path d="M0.277,0.015C0.234,0.015 0.192,0.009 0.149,-0.004C0.106,-0.016 0.074,-0.032 0.055,-0.051L0.102,-0.146C0.122,-0.13 0.147,-0.116 0.178,-0.105C0.209,-0.093 0.24,-0.087 0.272,-0.087C0.386,-0.087 0.443,-0.133 0.443,-0.226C0.443,-0.265 0.428,-0.297 0.397,-0.321C0.366,-0.345 0.324,-0.357 0.271,-0.357C0.234,-0.357 0.203,-0.355 0.178,-0.351L0.362,-0.637L0.086,-0.637L0.086,-0.735L0.561,-0.735L0.353,-0.438C0.395,-0.437 0.432,-0.427 0.465,-0.408C0.497,-0.389 0.522,-0.365 0.539,-0.335C0.556,-0.304 0.565,-0.271 0.565,-0.234C0.565,-0.186 0.554,-0.143 0.531,-0.106C0.508,-0.068 0.475,-0.038 0.432,-0.017C0.389,0.004 0.337,0.015 0.277,0.015Z" style="fill:rgb(155,155,155);fill-opacity:0.47;fill-rule:nonzero;"/>
                        </g>
                    </g>
                    <g transform="matrix(3.17302,0,0,3.17302,-756.209,40.9391)">
                        <g transform="matrix(9.70312,0,0,9.70312,257.919,71.4022)">
                            <path d="M0.354,-0.225C0.357,-0.23 0.364,-0.242 0.376,-0.262C0.388,-0.282 0.397,-0.296 0.404,-0.304C0.379,-0.282 0.344,-0.271 0.297,-0.271C0.253,-0.271 0.214,-0.281 0.18,-0.302C0.145,-0.323 0.119,-0.351 0.1,-0.387C0.081,-0.423 0.071,-0.463 0.071,-0.507C0.071,-0.554 0.082,-0.596 0.104,-0.633C0.126,-0.669 0.157,-0.697 0.197,-0.717C0.236,-0.737 0.282,-0.747 0.334,-0.747C0.379,-0.747 0.421,-0.737 0.458,-0.718C0.495,-0.698 0.525,-0.669 0.547,-0.632C0.568,-0.595 0.579,-0.551 0.579,-0.502C0.579,-0.47 0.575,-0.439 0.566,-0.409C0.557,-0.379 0.537,-0.333 0.506,-0.272C0.475,-0.211 0.424,-0.12 0.355,0L0.225,0L0.354,-0.225ZM0.324,-0.367C0.365,-0.367 0.398,-0.379 0.425,-0.404C0.451,-0.429 0.464,-0.462 0.464,-0.505C0.464,-0.548 0.451,-0.583 0.425,-0.61C0.399,-0.636 0.366,-0.65 0.327,-0.65C0.284,-0.65 0.25,-0.636 0.225,-0.61C0.199,-0.583 0.186,-0.548 0.186,-0.506C0.186,-0.463 0.199,-0.429 0.226,-0.404C0.253,-0.379 0.285,-0.367 0.324,-0.367Z" style="fill:rgb(155,155,155);fill-opacity:0.47;fill-rule:nonzero;"/>
                        </g>
                    </g>
                    <g transform="matrix(3.17302,0,0,3.17302,-573.159,-139.284)">
                        <g transform="matrix(9.70312,0,0,9.70312,256.124,71.4022)">
                            <path d="M0.129,-0.724L0.242,-0.756L0.242,0L0.129,0L0.129,-0.724Z" style="fill:rgb(155,155,155);fill-opacity:0.47;fill-rule:nonzero;"/>
                        </g>
                        <g transform="matrix(9.70312,0,0,9.70312,259.715,71.4022)">
                            <path d="M0.318,-0.309C0.349,-0.351 0.376,-0.39 0.397,-0.426C0.418,-0.462 0.428,-0.495 0.428,-0.526C0.428,-0.563 0.418,-0.592 0.399,-0.612C0.379,-0.631 0.349,-0.641 0.31,-0.641C0.274,-0.641 0.245,-0.631 0.223,-0.611C0.201,-0.591 0.183,-0.567 0.168,-0.538L0.075,-0.588C0.098,-0.633 0.129,-0.67 0.167,-0.701C0.205,-0.732 0.254,-0.747 0.313,-0.747C0.387,-0.747 0.444,-0.728 0.483,-0.69C0.522,-0.651 0.542,-0.601 0.542,-0.539C0.542,-0.458 0.502,-0.369 0.422,-0.271L0.286,-0.099L0.571,-0.099L0.571,0L0.071,0L0.318,-0.309Z" style="fill:rgb(155,155,155);fill-opacity:0.47;fill-rule:nonzero;"/>
                        </g>
                    </g>
                </g>
                <g id="Background" transform="matrix(0.740741,0,0,0.689655,60.4444,62.8966)">
                    <ellipse cx="264" cy="280" rx="216" ry="232" style="fill-opacity:0.05;"/>
                </g>
                <g id="Frame" transform="matrix(1.03704,0,0,0.965214,-17.7778,-14.1898)">
                    <ellipse cx="264" cy="280" rx="216" ry="232" style="fill:none;"/>
                    <clipPath id="_clip2">
                        <ellipse cx="264" cy="280" rx="216" ry="232"/>
                    </clipPath>
                    <g clip-path="url(#_clip2)">
                        <g id="Reflect1" serif:id="Reflect" transform="matrix(1.14286,0,0,1.14322,143.011,-133.518)">
                            <ellipse cx="264" cy="280" rx="216" ry="232" style="fill-opacity:0.05;"/>
                        </g>
                    </g>
                    <path d="M264.698,48.001L265.396,48.005L266.093,48.011L266.79,48.019L267.486,48.03L268.182,48.043L268.877,48.058L269.571,48.076L270.265,48.096L270.959,48.118L271.652,48.143L272.344,48.17L273.036,48.2L273.727,48.232L274.418,48.266L275.108,48.302L275.798,48.341L276.487,48.382L277.175,48.425L277.863,48.471L278.551,48.519L279.237,48.569L279.923,48.622L280.609,48.677L281.294,48.734L281.978,48.794L282.662,48.856L283.345,48.92L284.028,48.986L284.71,49.055L285.391,49.126L286.072,49.199L286.752,49.274L287.431,49.352L288.11,49.432L288.788,49.514L289.466,49.599L290.143,49.685L290.819,49.774L291.495,49.865L292.17,49.959L292.844,50.055L293.518,50.152L294.191,50.253L294.863,50.355L295.535,50.459L296.206,50.566L296.876,50.675L297.546,50.786L298.215,50.9L298.883,51.015L299.551,51.133L300.218,51.253L300.884,51.375L301.55,51.5L302.215,51.626L302.879,51.755L303.543,51.886L304.205,52.019L304.867,52.154L305.529,52.292L306.189,52.431L306.849,52.573L307.509,52.717L308.167,52.863L308.825,53.011L309.482,53.161L310.138,53.314L310.794,53.469L311.449,53.625L312.103,53.784L312.756,53.945L313.409,54.108L314.06,54.274L314.711,54.441L315.362,54.61L316.011,54.782L316.66,54.956L317.308,55.131L317.955,55.309L318.602,55.489L319.247,55.671L319.892,55.855L320.536,56.042L321.179,56.23L321.822,56.42L322.464,56.613L323.104,56.807L323.744,57.004L324.384,57.203L325.022,57.403L325.66,57.606L326.297,57.811L326.933,58.018L327.568,58.227L328.202,58.438L328.836,58.651L329.468,58.866L330.1,59.083L330.731,59.302L331.361,59.523L331.991,59.746L332.619,59.971L333.247,60.198L333.873,60.427L334.499,60.659L335.124,60.892L335.748,61.127L336.372,61.364L336.994,61.603L337.615,61.844L338.236,62.087L338.856,62.332L339.475,62.579L340.093,62.828L340.71,63.079L341.326,63.332L341.941,63.587L342.555,63.844L343.169,64.103L343.781,64.364L344.393,64.627L345.004,64.891L345.613,65.158L346.222,65.427L346.83,65.697L347.437,65.969L348.043,66.244L348.648,66.52L349.253,66.798L349.856,67.078L350.458,67.36L351.059,67.644L351.66,67.93L352.259,68.218L352.858,68.507L353.455,68.799L354.052,69.092L354.647,69.388L355.242,69.685L355.835,69.984L356.428,70.285L357.019,70.588L357.61,70.892L358.2,71.199L358.788,71.507L359.376,71.818L359.963,72.13L360.548,72.444L361.133,72.759L361.717,73.077L362.299,73.397L362.881,73.718L363.461,74.041L364.041,74.366L364.619,74.693L365.197,75.022L365.773,75.352L366.349,75.684L366.923,76.018L367.496,76.354L368.069,76.692L368.64,77.032L369.21,77.373L369.779,77.716L370.347,78.061L370.914,78.407L371.48,78.756L372.045,79.106L372.609,79.458L373.171,79.812L373.733,80.168L374.293,80.525L374.853,80.884L375.411,81.245L375.968,81.607L376.525,81.972L377.08,82.338L377.633,82.706L378.186,83.075L378.738,83.447L379.289,83.82L379.838,84.194L380.386,84.571L380.934,84.949L381.48,85.329L382.025,85.711L382.569,86.094L383.111,86.479L383.653,86.866L384.193,87.254L384.733,87.645L385.271,88.036L385.808,88.43L386.343,88.825L386.878,89.222L387.412,89.621L387.944,90.021L388.475,90.423L389.005,90.827L389.534,91.232L390.061,91.639L390.588,92.048L391.113,92.458L391.637,92.87L392.16,93.283L392.681,93.699L393.202,94.115L393.721,94.534L394.239,94.954L394.756,95.376L395.272,95.799L395.786,96.224L396.299,96.651L396.811,97.079L397.322,97.509L397.831,97.94L398.34,98.373L398.847,98.808L399.352,99.244L399.857,99.682L400.36,100.122L400.862,100.563L401.363,101.005L401.862,101.449L402.361,101.895L402.858,102.343L403.353,102.791L403.848,103.242L404.341,103.694L404.833,104.148L405.323,104.603L405.813,105.059L406.301,105.518L406.788,105.977L407.273,106.439L407.757,106.902L408.24,107.366L408.722,107.832L409.202,108.299L409.681,108.768L410.158,109.239L410.635,109.711L411.11,110.184L411.583,110.659L412.056,111.136L412.527,111.614L412.996,112.094L413.465,112.575L413.932,113.057L414.397,113.541L414.862,114.027L415.324,114.514L415.786,115.002L416.246,115.492L416.705,115.983L417.163,116.476L417.619,116.971L418.074,117.466L418.527,117.964L418.979,118.462L419.43,118.962L419.879,119.464L420.327,119.967L420.773,120.471L421.218,120.977L421.662,121.485L422.104,121.993L422.545,122.504L422.984,123.015L423.423,123.528L423.859,124.042L424.294,124.558L424.728,125.076L425.161,125.594L425.591,126.114L426.021,126.636L426.449,127.158L426.876,127.683L427.301,128.208L427.725,128.735L428.147,129.263L428.568,129.793L428.987,130.324L429.405,130.857L429.822,131.39L430.237,131.926L430.65,132.462L431.062,133L431.473,133.539L431.882,134.08L432.29,134.622L432.696,135.165L433.101,135.709L433.504,136.255L433.906,136.802L434.306,137.351L434.704,137.901L435.102,138.452L435.497,139.005L435.892,139.558L436.284,140.113L436.675,140.67L437.065,141.228L437.453,141.787L437.84,142.347L438.225,142.908L438.608,143.471L438.99,144.035L439.371,144.601L439.75,145.167L440.127,145.735L440.503,146.305L440.877,146.875L441.25,147.447L441.621,148.02L441.99,148.594L442.358,149.17L442.725,149.746L443.09,150.324L443.453,150.903L443.814,151.484L444.175,152.066L444.533,152.649L444.89,153.233L445.245,153.818L445.599,154.405L445.951,154.992L446.302,155.581L446.651,156.171L446.998,156.763L447.344,157.355L447.688,157.949L448.03,158.544L448.371,159.14L448.71,159.738L449.048,160.336L449.384,160.936L449.718,161.537L450.051,162.139L450.382,162.742L450.711,163.346L451.039,163.952L451.365,164.559L451.69,165.166L452.012,165.775L452.333,166.385L452.653,166.997L452.971,167.609L453.287,168.223L453.601,168.837L453.914,169.453L454.225,170.07L454.534,170.688L454.842,171.307L455.148,171.927L455.452,172.549L455.755,173.171L456.056,173.795L456.355,174.419L456.652,175.045L456.948,175.672L457.242,176.3L457.534,176.929L457.825,177.559L458.114,178.19L458.401,178.822L458.686,179.456L458.97,180.09L459.252,180.726L459.532,181.362L459.811,182L460.087,182.638L460.362,183.278L460.635,183.919L460.907,184.56L461.177,185.203L461.444,185.847L461.711,186.492L461.975,187.138L462.237,187.785L462.498,188.432L462.757,189.081L463.014,189.731L463.27,190.382L463.523,191.034L463.775,191.687L464.025,192.341L464.274,192.996L464.52,193.652L464.765,194.309L465.007,194.967L465.248,195.626L465.488,196.286L465.725,196.946L465.96,197.608L466.194,198.271L466.426,198.935L466.656,199.599L466.884,200.265L467.111,200.932L467.335,201.599L467.558,202.268L467.778,202.937L467.997,203.607L468.214,204.279L468.43,204.951L468.643,205.624L468.855,206.298L469.064,206.973L469.272,207.649L469.478,208.326L469.682,209.004L469.884,209.682L470.084,210.362L470.282,211.042L470.479,211.723L470.673,212.406L470.866,213.089L471.056,213.773L471.245,214.458L471.432,215.143L471.617,215.83L471.8,216.517L471.981,217.206L472.16,217.895L472.338,218.585L472.513,219.276L472.686,219.968L472.858,220.66L473.027,221.354L473.195,222.048L473.36,222.743L473.524,223.439L473.686,224.136L473.846,224.834L474.003,225.532L474.159,226.232L474.313,226.932L474.465,227.633L474.615,228.334L474.763,229.037L474.909,229.74L475.053,230.444L475.194,231.149L475.334,231.855L475.472,232.561L475.608,233.269L475.742,233.977L475.874,234.685L476.004,235.395L476.132,236.105L476.258,236.817L476.382,237.528L476.504,238.241L476.624,238.954L476.742,239.669L476.857,240.384L476.971,241.099L477.083,241.816L477.193,242.533L477.3,243.251L477.406,243.969L477.509,244.689L477.611,245.409L477.71,246.129L477.808,246.851L477.903,247.573L477.996,248.296L478.087,249.019L478.176,249.744L478.263,250.469L478.348,251.194L478.431,251.921L478.512,252.648L478.59,253.376L478.667,254.104L478.741,254.833L478.814,255.563L478.884,256.293L478.952,257.025L479.018,257.756L479.082,258.489L479.144,259.222L479.203,259.956L479.261,260.69L479.316,261.425L479.37,262.161L479.421,262.897L479.47,263.634L479.517,264.372L479.561,265.11L479.604,265.849L479.644,266.588L479.683,267.328L479.719,268.069L479.753,268.81L479.784,269.552L479.814,270.295L479.841,271.038L479.867,271.781L479.89,272.526L479.911,273.27L479.929,274.016L479.946,274.762L479.96,275.508L479.972,276.256L479.982,277.003L479.99,277.752L479.996,278.501L479.999,279.25L480,280L479.999,280.75L479.996,281.499L479.99,282.248L479.982,282.997L479.972,283.744L479.96,284.492L479.946,285.238L479.929,285.984L479.911,286.73L479.89,287.474L479.867,288.219L479.841,288.962L479.814,289.705L479.784,290.448L479.753,291.19L479.719,291.931L479.683,292.672L479.644,293.412L479.604,294.151L479.561,294.89L479.517,295.628L479.47,296.366L479.421,297.103L479.37,297.839L479.316,298.575L479.261,299.31L479.203,300.044L479.144,300.778L479.082,301.511L479.018,302.244L478.952,302.975L478.884,303.707L478.814,304.437L478.741,305.167L478.667,305.896L478.59,306.624L478.512,307.352L478.431,308.079L478.348,308.806L478.263,309.531L478.176,310.256L478.087,310.981L477.996,311.704L477.903,312.427L477.808,313.149L477.71,313.871L477.611,314.591L477.509,315.311L477.406,316.031L477.3,316.749L477.193,317.467L477.083,318.184L476.971,318.901L476.857,319.616L476.742,320.331L476.624,321.046L476.504,321.759L476.382,322.472L476.258,323.183L476.132,323.895L476.004,324.605L475.874,325.315L475.742,326.023L475.608,326.731L475.472,327.439L475.334,328.145L475.194,328.851L475.053,329.556L474.909,330.26L474.763,330.963L474.615,331.666L474.465,332.367L474.313,333.068L474.159,333.768L474.003,334.468L473.846,335.166L473.686,335.864L473.524,336.561L473.36,337.257L473.195,337.952L473.027,338.646L472.858,339.34L472.686,340.032L472.513,340.724L472.338,341.415L472.16,342.105L471.981,342.794L471.8,343.483L471.617,344.17L471.432,344.857L471.245,345.542L471.056,346.227L470.866,346.911L470.673,347.594L470.479,348.277L470.282,348.958L470.084,349.638L469.884,350.318L469.682,350.996L469.478,351.674L469.272,352.351L469.064,353.027L468.855,353.702L468.643,354.376L468.43,355.049L468.214,355.721L467.997,356.393L467.778,357.063L467.558,357.732L467.335,358.401L467.111,359.068L466.884,359.735L466.656,360.401L466.426,361.065L466.194,361.729L465.96,362.392L465.725,363.054L465.488,363.714L465.248,364.374L465.007,365.033L464.765,365.691L464.52,366.348L464.274,367.004L464.025,367.659L463.775,368.313L463.523,368.966L463.27,369.618L463.014,370.269L462.757,370.919L462.498,371.568L462.237,372.215L461.975,372.862L461.711,373.508L461.444,374.153L461.177,374.797L460.907,375.44L460.635,376.081L460.362,376.722L460.087,377.362L459.811,378L459.532,378.638L459.252,379.274L458.97,379.91L458.686,380.544L458.401,381.178L458.114,381.81L457.825,382.441L457.534,383.071L457.242,383.7L456.948,384.328L456.652,384.955L456.355,385.581L456.056,386.205L455.755,386.829L455.452,387.451L455.148,388.073L454.842,388.693L454.534,389.312L454.225,389.93L453.914,390.547L453.601,391.163L453.287,391.777L452.971,392.391L452.653,393.003L452.333,393.615L452.012,394.225L451.69,394.834L451.365,395.441L451.039,396.048L450.711,396.654L450.382,397.258L450.051,397.861L449.718,398.463L449.384,399.064L449.048,399.664L448.71,400.262L448.371,400.86L448.03,401.456L447.688,402.051L447.344,402.645L446.998,403.237L446.651,403.829L446.302,404.419L445.951,405.008L445.599,405.595L445.245,406.182L444.89,406.767L444.533,407.351L444.175,407.934L443.814,408.516L443.453,409.097L443.09,409.676L442.725,410.254L442.358,410.83L441.99,411.406L441.621,411.98L441.25,412.553L440.877,413.125L440.503,413.695L440.127,414.265L439.75,414.833L439.371,415.399L438.99,415.965L438.608,416.529L438.225,417.092L437.84,417.653L437.453,418.213L437.065,418.772L436.675,419.33L436.284,419.887L435.892,420.442L435.497,420.995L435.102,421.548L434.704,422.099L434.306,422.649L433.906,423.198L433.504,423.745L433.101,424.291L432.696,424.835L432.29,425.378L431.882,425.92L431.473,426.461L431.062,427L430.65,427.538L430.237,428.074L429.822,428.61L429.405,429.143L428.987,429.676L428.568,430.207L428.147,430.737L427.725,431.265L427.301,431.792L426.876,432.317L426.449,432.842L426.021,433.364L425.591,433.886L425.161,434.406L424.728,434.924L424.294,435.442L423.859,435.958L423.423,436.472L422.984,436.985L422.545,437.496L422.104,438.007L421.662,438.515L421.218,439.023L420.773,439.529L420.327,440.033L419.879,440.536L419.43,441.038L418.979,441.538L418.527,442.036L418.074,442.534L417.619,443.029L417.163,443.524L416.705,444.017L416.246,444.508L415.786,444.998L415.324,445.486L414.862,445.973L414.397,446.459L413.932,446.943L413.465,447.425L412.996,447.906L412.527,448.386L412.056,448.864L411.583,449.341L411.11,449.816L410.635,450.289L410.158,450.761L409.681,451.232L409.202,451.701L408.722,452.168L408.24,452.634L407.757,453.098L407.273,453.561L406.788,454.023L406.301,454.482L405.813,454.941L405.323,455.397L404.833,455.852L404.341,456.306L403.848,456.758L403.353,457.209L402.858,457.657L402.361,458.105L401.862,458.551L401.363,458.995L400.862,459.437L400.36,459.878L399.857,460.318L399.352,460.756L398.847,461.192L398.34,461.627L397.831,462.06L397.322,462.491L396.811,462.921L396.299,463.349L395.786,463.776L395.272,464.201L394.756,464.624L394.239,465.046L393.721,465.466L393.202,465.885L392.681,466.301L392.16,466.717L391.637,467.13L391.113,467.542L390.588,467.952L390.061,468.361L389.534,468.768L389.005,469.173L388.475,469.577L387.944,469.979L387.412,470.379L386.878,470.778L386.343,471.175L385.808,471.57L385.271,471.964L384.733,472.355L384.193,472.746L383.653,473.134L383.111,473.521L382.569,473.906L382.025,474.289L381.48,474.671L380.934,475.051L380.386,475.429L379.838,475.806L379.289,476.18L378.738,476.553L378.186,476.925L377.633,477.294L377.08,477.662L376.525,478.028L375.968,478.393L375.411,478.755L374.853,479.116L374.293,479.475L373.733,479.832L373.171,480.188L372.609,480.542L372.045,480.894L371.48,481.244L370.914,481.593L370.347,481.939L369.779,482.284L369.21,482.627L368.64,482.968L368.069,483.308L367.496,483.646L366.923,483.982L366.349,484.316L365.773,484.648L365.197,484.978L364.619,485.307L364.041,485.634L363.461,485.959L362.881,486.282L362.299,486.603L361.717,486.923L361.133,487.241L360.548,487.556L359.963,487.87L359.376,488.182L358.788,488.493L358.2,488.801L357.61,489.108L357.019,489.412L356.428,489.715L355.835,490.016L355.242,490.315L354.647,490.612L354.052,490.908L353.455,491.201L352.858,491.493L352.259,491.782L351.66,492.07L351.059,492.356L350.458,492.64L349.856,492.922L349.253,493.202L348.648,493.48L348.043,493.756L347.437,494.031L346.83,494.303L346.222,494.573L345.613,494.842L345.004,495.109L344.393,495.373L343.781,495.636L343.169,495.897L342.555,496.156L341.941,496.413L341.326,496.668L340.71,496.921L340.093,497.172L339.475,497.421L338.856,497.668L338.236,497.913L337.615,498.156L336.994,498.397L336.372,498.636L335.748,498.873L335.124,499.108L334.499,499.341L333.873,499.573L333.247,499.802L332.619,500.029L331.991,500.254L331.361,500.477L330.731,500.698L330.1,500.917L329.468,501.134L328.836,501.349L328.202,501.562L327.568,501.773L326.933,501.982L326.297,502.189L325.66,502.394L325.022,502.597L324.384,502.797L323.744,502.996L323.104,503.193L322.464,503.387L321.822,503.58L321.179,503.77L320.536,503.958L319.892,504.145L319.247,504.329L318.602,504.511L317.955,504.691L317.308,504.869L316.66,505.044L316.011,505.218L315.362,505.39L314.711,505.559L314.06,505.726L313.409,505.892L312.756,506.055L312.103,506.216L311.449,506.375L310.794,506.531L310.138,506.686L309.482,506.839L308.825,506.989L308.167,507.137L307.509,507.283L306.849,507.427L306.189,507.569L305.529,507.708L304.867,507.846L304.205,507.981L303.543,508.114L302.879,508.245L302.215,508.374L301.55,508.5L300.884,508.625L300.218,508.747L299.551,508.867L298.883,508.985L298.215,509.1L297.546,509.214L296.876,509.325L296.206,509.434L295.535,509.541L294.863,509.645L294.191,509.747L293.518,509.848L292.844,509.945L292.17,510.041L291.495,510.135L290.819,510.226L290.143,510.315L289.466,510.401L288.788,510.486L288.11,510.568L287.431,510.648L286.752,510.726L286.072,510.801L285.391,510.874L284.71,510.945L284.028,511.014L283.345,511.08L282.662,511.144L281.978,511.206L281.294,511.266L280.609,511.323L279.923,511.378L279.237,511.431L278.551,511.481L277.863,511.529L277.175,511.575L276.487,511.618L275.798,511.659L275.108,511.698L274.418,511.734L273.727,511.768L273.036,511.8L272.344,511.83L271.652,511.857L270.959,511.882L270.265,511.904L269.571,511.924L268.877,511.942L268.182,511.957L267.486,511.97L266.79,511.981L266.093,511.989L265.396,511.995L264.698,511.999L264,512L263.302,511.999L262.604,511.995L261.907,511.989L261.21,511.981L260.514,511.97L259.818,511.957L259.123,511.942L258.429,511.924L257.735,511.904L257.041,511.882L256.348,511.857L255.656,511.83L254.964,511.8L254.273,511.768L253.582,511.734L252.892,511.698L252.202,511.659L251.513,511.618L250.825,511.575L250.137,511.529L249.449,511.481L248.763,511.431L248.077,511.378L247.391,511.323L246.706,511.266L246.022,511.206L245.338,511.144L244.655,511.08L243.972,511.014L243.29,510.945L242.609,510.874L241.928,510.801L241.248,510.726L240.569,510.648L239.89,510.568L239.212,510.486L238.534,510.401L237.857,510.315L237.181,510.226L236.505,510.135L235.83,510.041L235.156,509.945L234.482,509.848L233.809,509.747L233.137,509.645L232.465,509.541L231.794,509.434L231.124,509.325L230.454,509.214L229.785,509.1L229.117,508.985L228.449,508.867L227.782,508.747L227.116,508.625L226.45,508.5L225.785,508.374L225.121,508.245L224.457,508.114L223.795,507.981L223.133,507.846L222.471,507.708L221.811,507.569L221.151,507.427L220.491,507.283L219.833,507.137L219.175,506.989L218.518,506.839L217.862,506.686L217.206,506.531L216.551,506.375L215.897,506.216L215.244,506.055L214.591,505.892L213.94,505.726L213.289,505.559L212.638,505.39L211.989,505.218L211.34,505.044L210.692,504.869L210.045,504.691L209.398,504.511L208.753,504.329L208.108,504.145L207.464,503.958L206.821,503.77L206.178,503.58L205.536,503.387L204.896,503.193L204.256,502.996L203.616,502.797L202.978,502.597L202.34,502.394L201.703,502.189L201.067,501.982L200.432,501.773L199.798,501.562L199.164,501.349L198.532,501.134L197.9,500.917L197.269,500.698L196.639,500.477L196.009,500.254L195.381,500.029L194.753,499.802L194.127,499.573L193.501,499.341L192.876,499.108L192.252,498.873L191.628,498.636L191.006,498.397L190.385,498.156L189.764,497.913L189.144,497.668L188.525,497.421L187.907,497.172L187.29,496.921L186.674,496.668L186.059,496.413L185.445,496.156L184.831,495.897L184.219,495.636L183.607,495.373L182.996,495.109L182.387,494.842L181.778,494.573L181.17,494.303L180.563,494.031L179.957,493.756L179.352,493.48L178.747,493.202L178.144,492.922L177.542,492.64L176.941,492.356L176.34,492.07L175.741,491.782L175.142,491.493L174.545,491.201L173.948,490.908L173.353,490.612L172.758,490.315L172.165,490.016L171.572,489.715L170.981,489.412L170.39,489.108L169.8,488.801L169.212,488.493L168.624,488.182L168.037,487.87L167.452,487.556L166.867,487.241L166.283,486.923L165.701,486.603L165.119,486.282L164.539,485.959L163.959,485.634L163.381,485.307L162.803,484.978L162.227,484.648L161.651,484.316L161.077,483.982L160.504,483.646L159.931,483.308L159.36,482.968L158.79,482.627L158.221,482.284L157.653,481.939L157.086,481.593L156.52,481.244L155.955,480.894L155.391,480.542L154.829,480.188L154.267,479.832L153.707,479.475L153.147,479.116L152.589,478.755L152.032,478.393L151.475,478.028L150.92,477.662L150.367,477.294L149.814,476.925L149.262,476.553L148.711,476.18L148.162,475.806L147.614,475.429L147.066,475.051L146.52,474.671L145.975,474.289L145.431,473.906L144.889,473.521L144.347,473.134L143.807,472.746L143.267,472.355L142.729,471.964L142.192,471.57L141.657,471.175L141.122,470.778L140.588,470.379L140.056,469.979L139.525,469.577L138.995,469.173L138.466,468.768L137.939,468.361L137.412,467.952L136.887,467.542L136.363,467.13L135.84,466.717L135.319,466.301L134.798,465.885L134.279,465.466L133.761,465.046L133.244,464.624L132.728,464.201L132.214,463.776L131.701,463.349L131.189,462.921L130.678,462.491L130.169,462.06L129.66,461.627L129.153,461.192L128.648,460.756L128.143,460.318L127.64,459.878L127.138,459.437L126.637,458.995L126.138,458.551L125.639,458.105L125.142,457.657L124.647,457.209L124.152,456.758L123.659,456.306L123.167,455.852L122.677,455.397L122.187,454.941L121.699,454.482L121.212,454.023L120.727,453.561L120.243,453.098L119.76,452.634L119.278,452.168L118.798,451.701L118.319,451.232L117.842,450.761L117.365,450.289L116.89,449.816L116.417,449.341L115.944,448.864L115.473,448.386L115.004,447.906L114.535,447.425L114.068,446.943L113.603,446.459L113.138,445.973L112.676,445.486L112.214,444.998L111.754,444.508L111.295,444.017L110.837,443.524L110.381,443.029L109.926,442.534L109.473,442.036L109.021,441.538L108.57,441.038L108.121,440.536L107.673,440.033L107.227,439.529L106.782,439.023L106.338,438.515L105.896,438.007L105.455,437.496L105.016,436.985L104.577,436.472L104.141,435.958L103.706,435.442L103.272,434.924L102.839,434.406L102.409,433.886L101.979,433.364L101.551,432.842L101.124,432.317L100.699,431.792L100.275,431.265L99.853,430.737L99.432,430.207L99.013,429.676L98.595,429.143L98.178,428.61L97.763,428.074L97.35,427.538L96.938,427L96.527,426.461L96.118,425.92L95.71,425.378L95.304,424.835L94.899,424.291L94.496,423.745L94.094,423.198L93.694,422.649L93.296,422.099L92.898,421.548L92.503,420.995L92.108,420.442L91.716,419.887L91.325,419.33L90.935,418.772L90.547,418.213L90.16,417.653L89.775,417.092L89.392,416.529L89.01,415.965L88.629,415.399L88.25,414.833L87.873,414.265L87.497,413.695L87.123,413.125L86.75,412.553L86.379,411.98L86.01,411.406L85.642,410.83L85.275,410.254L84.91,409.676L84.547,409.097L84.186,408.516L83.825,407.934L83.467,407.351L83.11,406.767L82.755,406.182L82.401,405.595L82.049,405.008L81.698,404.419L81.349,403.829L81.002,403.237L80.656,402.645L80.312,402.051L79.97,401.456L79.629,400.86L79.29,400.262L78.952,399.664L78.616,399.064L78.282,398.463L77.949,397.861L77.618,397.258L77.289,396.654L76.961,396.048L76.635,395.441L76.31,394.834L75.988,394.225L75.667,393.615L75.347,393.003L75.029,392.391L74.713,391.777L74.399,391.163L74.086,390.547L73.775,389.93L73.466,389.312L73.158,388.693L72.852,388.073L72.548,387.451L72.245,386.829L71.944,386.205L71.645,385.581L71.348,384.955L71.052,384.328L70.758,383.7L70.466,383.071L70.175,382.441L69.886,381.81L69.599,381.178L69.314,380.544L69.03,379.91L68.748,379.274L68.468,378.638L68.189,378L67.913,377.362L67.638,376.722L67.365,376.081L67.093,375.44L66.823,374.797L66.556,374.153L66.289,373.508L66.025,372.862L65.763,372.215L65.502,371.568L65.243,370.919L64.986,370.269L64.73,369.618L64.477,368.966L64.225,368.313L63.975,367.659L63.726,367.004L63.48,366.348L63.235,365.691L62.993,365.033L62.752,364.374L62.512,363.714L62.275,363.054L62.04,362.392L61.806,361.729L61.574,361.065L61.344,360.401L61.116,359.735L60.889,359.068L60.665,358.401L60.442,357.732L60.222,357.063L60.003,356.393L59.786,355.721L59.57,355.049L59.357,354.376L59.145,353.702L58.936,353.027L58.728,352.351L58.522,351.674L58.318,350.996L58.116,350.318L57.916,349.638L57.718,348.958L57.521,348.277L57.327,347.594L57.134,346.911L56.944,346.227L56.755,345.542L56.568,344.857L56.383,344.17L56.2,343.483L56.019,342.794L55.84,342.105L55.662,341.415L55.487,340.724L55.314,340.032L55.142,339.34L54.973,338.646L54.805,337.952L54.64,337.257L54.476,336.561L54.314,335.864L54.154,335.166L53.997,334.468L53.841,333.768L53.687,333.068L53.535,332.367L53.385,331.666L53.237,330.963L53.091,330.26L52.947,329.556L52.806,328.851L52.666,328.145L52.528,327.439L52.392,326.731L52.258,326.023L52.126,325.315L51.996,324.605L51.868,323.895L51.742,323.183L51.618,322.472L51.496,321.759L51.376,321.046L51.258,320.331L51.143,319.616L51.029,318.901L50.917,318.184L50.807,317.467L50.7,316.749L50.594,316.031L50.491,315.311L50.389,314.591L50.29,313.871L50.192,313.149L50.097,312.427L50.004,311.704L49.913,310.981L49.824,310.256L49.737,309.531L49.652,308.806L49.569,308.079L49.488,307.352L49.41,306.624L49.333,305.896L49.259,305.167L49.186,304.437L49.116,303.707L49.048,302.975L48.982,302.244L48.918,301.511L48.856,300.778L48.797,300.044L48.739,299.31L48.684,298.575L48.63,297.839L48.579,297.103L48.53,296.366L48.483,295.628L48.439,294.89L48.396,294.151L48.356,293.412L48.317,292.672L48.281,291.931L48.247,291.19L48.216,290.448L48.186,289.705L48.159,288.962L48.133,288.219L48.11,287.474L48.089,286.73L48.071,285.984L48.054,285.238L48.04,284.492L48.028,283.744L48.018,282.997L48.01,282.248L48.004,281.499L48.001,280.75L48,280L48.001,279.25L48.004,278.501L48.01,277.752L48.018,277.003L48.028,276.256L48.04,275.508L48.054,274.762L48.071,274.016L48.089,273.27L48.11,272.526L48.133,271.781L48.159,271.038L48.186,270.295L48.216,269.552L48.247,268.81L48.281,268.069L48.317,267.328L48.356,266.588L48.396,265.849L48.439,265.11L48.483,264.372L48.53,263.634L48.579,262.897L48.63,262.161L48.684,261.425L48.739,260.69L48.797,259.956L48.856,259.222L48.918,258.489L48.982,257.756L49.048,257.025L49.116,256.293L49.186,255.563L49.259,254.833L49.333,254.104L49.41,253.376L49.488,252.648L49.569,251.921L49.652,251.194L49.737,250.469L49.824,249.744L49.913,249.019L50.004,248.296L50.097,247.573L50.192,246.851L50.29,246.129L50.389,245.409L50.491,244.689L50.594,243.969L50.7,243.251L50.807,242.533L50.917,241.816L51.029,241.099L51.143,240.384L51.258,239.669L51.376,238.954L51.496,238.241L51.618,237.528L51.742,236.817L51.868,236.105L51.996,235.395L52.126,234.685L52.258,233.977L52.392,233.269L52.528,232.561L52.666,231.855L52.806,231.149L52.947,230.444L53.091,229.74L53.237,229.037L53.385,228.334L53.535,227.633L53.687,226.932L53.841,226.232L53.997,225.532L54.154,224.834L54.314,224.136L54.476,223.439L54.64,222.743L54.805,222.048L54.973,221.354L55.142,220.66L55.314,219.968L55.487,219.276L55.662,218.585L55.84,217.895L56.019,217.206L56.2,216.517L56.383,215.83L56.568,215.143L56.755,214.458L56.944,213.773L57.134,213.089L57.327,212.406L57.521,211.723L57.718,211.042L57.916,210.362L58.116,209.682L58.318,209.004L58.522,208.326L58.728,207.649L58.936,206.973L59.145,206.298L59.357,205.624L59.57,204.951L59.786,204.279L60.003,203.607L60.222,202.937L60.442,202.268L60.665,201.599L60.889,200.932L61.116,200.265L61.344,199.599L61.574,198.935L61.806,198.271L62.04,197.608L62.275,196.946L62.512,196.286L62.752,195.626L62.993,194.967L63.235,194.309L63.48,193.652L63.726,192.996L63.975,192.341L64.225,191.687L64.477,191.034L64.73,190.382L64.986,189.731L65.243,189.081L65.502,188.432L65.763,187.785L66.025,187.138L66.289,186.492L66.556,185.847L66.823,185.203L67.093,184.56L67.365,183.919L67.638,183.278L67.913,182.638L68.189,182L68.468,181.362L68.748,180.726L69.03,180.09L69.314,179.456L69.599,178.822L69.886,178.19L70.175,177.559L70.466,176.929L70.758,176.3L71.052,175.672L71.348,175.045L71.645,174.419L71.944,173.795L72.245,173.171L72.548,172.549L72.852,171.927L73.158,171.307L73.466,170.688L73.775,170.07L74.086,169.453L74.399,168.837L74.713,168.223L75.029,167.609L75.347,166.997L75.667,166.385L75.988,165.775L76.31,165.166L76.635,164.559L76.961,163.952L77.289,163.346L77.618,162.742L77.949,162.139L78.282,161.537L78.616,160.936L78.952,160.336L79.29,159.738L79.629,159.14L79.97,158.544L80.312,157.949L80.656,157.355L81.002,156.763L81.349,156.171L81.698,155.581L82.049,154.992L82.401,154.405L82.755,153.818L83.11,153.233L83.467,152.649L83.825,152.066L84.186,151.484L84.547,150.903L84.91,150.324L85.275,149.746L85.642,149.17L86.01,148.594L86.379,148.02L86.75,147.447L87.123,146.875L87.497,146.305L87.873,145.735L88.25,145.167L88.629,144.601L89.01,144.035L89.392,143.471L89.775,142.908L90.16,142.347L90.547,141.787L90.935,141.228L91.325,140.67L91.716,140.113L92.108,139.558L92.503,139.005L92.898,138.452L93.296,137.901L93.694,137.351L94.094,136.802L94.496,136.255L94.899,135.709L95.304,135.165L95.71,134.622L96.118,134.08L96.527,133.539L96.938,133L97.35,132.462L97.763,131.926L98.178,131.39L98.595,130.857L99.013,130.324L99.432,129.793L99.853,129.263L100.275,128.735L100.699,128.208L101.124,127.683L101.551,127.158L101.979,126.636L102.409,126.114L102.839,125.594L103.272,125.076L103.706,124.558L104.141,124.042L104.577,123.528L105.016,123.015L105.455,122.504L105.896,121.993L106.338,121.485L106.782,120.977L107.227,120.471L107.673,119.967L108.121,119.464L108.57,118.962L109.021,118.462L109.473,117.964L109.926,117.466L110.381,116.971L110.837,116.476L111.295,115.983L111.754,115.492L112.214,115.002L112.676,114.514L113.138,114.027L113.603,113.541L114.068,113.057L114.535,112.575L115.004,112.094L115.473,111.614L115.944,111.136L116.417,110.659L116.89,110.184L117.365,109.711L117.842,109.239L118.319,108.768L118.798,108.299L119.278,107.832L119.76,107.366L120.243,106.902L120.727,106.439L121.212,105.977L121.699,105.518L122.187,105.059L122.677,104.603L123.167,104.148L123.659,103.694L124.152,103.242L124.647,102.791L125.142,102.343L125.639,101.895L126.138,101.449L126.637,101.005L127.138,100.563L127.64,100.122L128.143,99.682L128.648,99.244L129.153,98.808L129.66,98.373L130.169,97.94L130.678,97.509L131.189,97.079L131.701,96.651L132.214,96.224L132.728,95.799L133.244,95.376L133.761,94.954L134.279,94.534L134.798,94.115L135.319,93.699L135.84,93.283L136.363,92.87L136.887,92.458L137.412,92.048L137.939,91.639L138.466,91.232L138.995,90.827L139.525,90.423L140.056,90.021L140.588,89.621L141.122,89.222L141.657,88.825L142.192,88.43L142.729,88.036L143.267,87.645L143.807,87.254L144.347,86.866L144.889,86.479L145.431,86.094L145.975,85.711L146.52,85.329L147.066,84.949L147.614,84.571L148.162,84.194L148.711,83.82L149.262,83.447L149.814,83.075L150.367,82.706L150.92,82.338L151.475,81.972L152.032,81.607L152.589,81.245L153.147,80.884L153.707,80.525L154.267,80.168L154.829,79.812L155.391,79.458L155.955,79.106L156.52,78.756L157.086,78.407L157.653,78.061L158.221,77.716L158.79,77.373L159.36,77.032L159.931,76.692L160.504,76.354L161.077,76.018L161.651,75.684L162.227,75.352L162.803,75.022L163.381,74.693L163.959,74.366L164.539,74.041L165.119,73.718L165.701,73.397L166.283,73.077L166.867,72.759L167.452,72.444L168.037,72.13L168.624,71.818L169.212,71.507L169.8,71.199L170.39,70.892L170.981,70.588L171.572,70.285L172.165,69.984L172.758,69.685L173.353,69.388L173.948,69.092L174.545,68.799L175.142,68.507L175.741,68.218L176.34,67.93L176.941,67.644L177.542,67.36L178.144,67.078L178.747,66.798L179.352,66.52L179.957,66.244L180.563,65.969L181.17,65.697L181.778,65.427L182.387,65.158L182.996,64.891L183.607,64.627L184.219,64.364L184.831,64.103L185.445,63.844L186.059,63.587L186.674,63.332L187.29,63.079L187.907,62.828L188.525,62.579L189.144,62.332L189.764,62.087L190.385,61.844L191.006,61.603L191.628,61.364L192.252,61.127L192.876,60.892L193.501,60.659L194.127,60.427L194.753,60.198L195.381,59.971L196.009,59.746L196.639,59.523L197.269,59.302L197.9,59.083L198.532,58.866L199.164,58.651L199.798,58.438L200.432,58.227L201.067,58.018L201.703,57.811L202.34,57.606L202.978,57.403L203.616,57.203L204.256,57.004L204.896,56.807L205.536,56.613L206.178,56.42L206.821,56.23L207.464,56.042L208.108,55.855L208.753,55.671L209.398,55.489L210.045,55.309L210.692,55.131L211.34,54.956L211.989,54.782L212.638,54.61L213.289,54.441L213.94,54.274L214.591,54.108L215.244,53.945L215.897,53.784L216.551,53.625L217.206,53.469L217.862,53.314L218.518,53.161L219.175,53.011L219.833,52.863L220.491,52.717L221.151,52.573L221.811,52.431L222.471,52.292L223.133,52.154L223.795,52.019L224.457,51.886L225.121,51.755L225.785,51.626L226.45,51.5L227.116,51.375L227.782,51.253L228.449,51.133L229.117,51.015L229.785,50.9L230.454,50.786L231.124,50.675L231.794,50.566L232.465,50.459L233.137,50.355L233.809,50.253L234.482,50.152L235.156,50.055L235.83,49.959L236.505,49.865L237.181,49.774L237.857,49.685L238.534,49.599L239.212,49.514L239.89,49.432L240.569,49.352L241.248,49.274L241.928,49.199L242.609,49.126L243.29,49.055L243.972,48.986L244.655,48.92L245.338,48.856L246.022,48.794L246.706,48.734L247.391,48.677L248.077,48.622L248.763,48.569L249.449,48.519L250.137,48.471L250.825,48.425L251.513,48.382L252.202,48.341L252.892,48.302L253.582,48.266L254.273,48.232L254.964,48.2L255.656,48.17L256.348,48.143L257.041,48.118L257.735,48.096L258.429,48.076L259.123,48.058L259.818,48.043L260.514,48.03L261.21,48.019L261.907,48.011L262.604,48.005L263.302,48.001L264,48L264.698,48.001ZM263.351,64.578L262.702,64.581L262.054,64.587L261.406,64.594L260.758,64.604L260.112,64.616L259.465,64.631L258.82,64.647L258.175,64.666L257.53,64.687L256.886,64.71L256.242,64.735L255.599,64.762L254.957,64.792L254.315,64.824L253.674,64.857L253.033,64.893L252.393,64.932L251.753,64.972L251.114,65.014L250.475,65.059L249.837,65.106L249.2,65.155L248.563,65.206L247.927,65.259L247.291,65.314L246.656,65.372L246.021,65.431L245.387,65.493L244.754,65.557L244.121,65.622L243.489,65.69L242.857,65.76L242.226,65.833L241.596,65.907L240.966,65.983L240.337,66.062L239.708,66.142L239.08,66.225L238.453,66.309L237.826,66.396L237.2,66.485L236.574,66.576L235.949,66.669L235.325,66.764L234.702,66.861L234.079,66.96L233.456,67.061L232.834,67.165L232.213,67.27L231.593,67.377L230.973,67.487L230.354,67.598L229.735,67.711L229.118,67.827L228.5,67.944L227.884,68.064L227.268,68.185L226.653,68.309L226.038,68.434L225.424,68.562L224.811,68.691L224.199,68.823L223.587,68.957L222.976,69.092L222.365,69.23L221.755,69.369L221.146,69.511L220.538,69.654L219.93,69.8L219.323,69.947L218.717,70.096L218.111,70.248L217.506,70.401L216.902,70.557L216.298,70.714L215.696,70.873L215.094,71.034L214.492,71.197L213.892,71.362L213.292,71.529L212.693,71.698L212.094,71.869L211.497,72.042L210.9,72.217L210.303,72.393L209.708,72.572L209.113,72.753L208.519,72.935L207.926,73.119L207.333,73.306L206.742,73.494L206.151,73.684L205.561,73.876L204.971,74.07L204.382,74.265L203.795,74.463L203.208,74.663L202.621,74.864L202.036,75.067L201.451,75.273L200.867,75.48L200.284,75.689L199.701,75.899L199.12,76.112L198.539,76.326L197.959,76.543L197.38,76.761L196.801,76.981L196.224,77.203L195.647,77.427L195.071,77.652L194.496,77.88L193.922,78.109L193.348,78.34L192.775,78.573L192.204,78.808L191.633,79.045L191.062,79.283L190.493,79.523L189.924,79.765L189.357,80.009L188.79,80.255L188.224,80.502L187.659,80.751L187.095,81.003L186.531,81.255L185.969,81.51L185.408,81.766L184.847,82.025L184.287,82.285L183.728,82.546L183.17,82.81L182.612,83.075L182.056,83.342L181.5,83.611L180.946,83.882L180.392,84.154L179.839,84.428L179.288,84.704L178.737,84.982L178.186,85.261L177.637,85.542L177.089,85.825L176.542,86.109L175.995,86.396L175.449,86.684L174.905,86.974L174.362,87.265L173.819,87.558L173.277,87.853L172.736,88.15L172.196,88.448L171.657,88.748L171.119,89.05L170.582,89.353L170.046,89.658L169.51,89.965L168.976,90.274L168.443,90.584L167.911,90.896L167.38,91.209L166.849,91.525L166.32,91.841L165.791,92.16L165.264,92.48L164.737,92.802L164.212,93.126L163.687,93.451L163.164,93.778L162.642,94.106L162.12,94.436L161.599,94.768L161.08,95.102L160.562,95.437L160.044,95.774L159.527,96.112L159.012,96.452L158.498,96.793L157.984,97.137L157.472,97.481L156.961,97.828L156.45,98.176L155.941,98.526L155.433,98.877L154.926,99.23L154.42,99.584L153.914,99.94L153.411,100.298L152.908,100.657L152.405,101.018L151.905,101.38L151.405,101.744L150.906,102.11L150.408,102.477L149.912,102.845L149.417,103.216L148.922,103.588L148.429,103.961L147.936,104.336L147.445,104.712L146.955,105.09L146.466,105.47L145.978,105.851L145.492,106.233L145.006,106.618L144.521,107.003L144.038,107.391L143.556,107.779L143.075,108.169L142.594,108.561L142.115,108.955L141.637,109.35L141.161,109.746L140.685,110.143L140.211,110.543L139.738,110.944L139.265,111.346L138.794,111.75L138.325,112.155L137.856,112.562L137.388,112.97L136.922,113.38L136.457,113.791L135.993,114.203L135.53,114.618L135.068,115.033L134.608,115.45L134.148,115.869L133.69,116.289L133.233,116.71L132.777,117.133L132.323,117.557L131.869,117.983L131.417,118.411L130.966,118.839L130.516,119.269L130.068,119.7L129.62,120.133L129.174,120.568L128.729,121.003L128.285,121.441L127.843,121.879L127.402,122.319L126.961,122.76L126.523,123.203L126.085,123.647L125.648,124.093L125.213,124.54L124.78,124.988L124.347,125.438L123.915,125.889L123.486,126.341L123.057,126.795L122.629,127.25L122.203,127.707L121.778,128.164L121.354,128.624L120.932,129.084L120.51,129.546L120.09,130.01L119.671,130.475L119.254,130.94L118.838,131.408L118.423,131.876L118.01,132.347L117.598,132.818L117.187,133.29L116.777,133.765L116.369,134.24L115.962,134.716L115.556,135.194L115.152,135.674L114.749,136.154L114.347,136.636L113.947,137.119L113.547,137.604L113.15,138.089L112.754,138.576L112.359,139.064L111.965,139.554L111.573,140.045L111.182,140.537L110.792,141.031L110.404,141.525L110.017,142.021L109.631,142.518L109.247,143.016L108.864,143.516L108.482,144.017L108.103,144.519L107.724,145.022L107.347,145.527L106.97,146.033L106.596,146.54L106.223,147.048L105.851,147.558L105.481,148.069L105.112,148.581L104.744,149.094L104.378,149.608L104.013,150.124L103.65,150.641L103.288,151.159L102.927,151.678L102.568,152.199L102.211,152.72L101.855,153.243L101.5,153.767L101.146,154.293L100.794,154.819L100.444,155.346L100.095,155.875L99.747,156.405L99.401,156.936L99.056,157.468L98.713,158.001L98.372,158.536L98.031,159.072L97.692,159.609L97.355,160.146L97.019,160.685L96.685,161.225L96.352,161.767L96.02,162.309L95.69,162.853L95.361,163.398L95.035,163.943L94.709,164.49L94.385,165.039L94.062,165.588L93.741,166.138L93.422,166.689L93.104,167.242L92.787,167.796L92.472,168.351L92.159,168.906L91.847,169.463L91.536,170.021L91.228,170.58L90.92,171.14L90.614,171.701L90.31,172.263L90.007,172.827L89.706,173.391L89.406,173.956L89.108,174.523L88.812,175.09L88.517,175.659L88.223,176.229L87.931,176.799L87.641,177.371L87.352,177.944L87.065,178.518L86.779,179.093L86.495,179.668L86.213,180.245L85.932,180.823L85.653,181.402L85.375,181.981L85.098,182.563L84.824,183.145L84.551,183.727L84.28,184.311L84.01,184.897L83.742,185.482L83.475,186.069L83.21,186.657L82.947,187.246L82.685,187.836L82.425,188.427L82.167,189.018L81.91,189.611L81.655,190.204L81.401,190.799L81.149,191.396L80.899,191.992L80.65,192.589L80.403,193.188L80.158,193.787L79.914,194.387L79.672,194.989L79.432,195.591L79.193,196.194L78.956,196.799L78.721,197.404L78.487,198.009L78.255,198.616L78.024,199.225L77.796,199.833L77.569,200.442L77.344,201.053L77.12,201.665L76.898,202.277L76.678,202.89L76.459,203.505L76.242,204.12L76.027,204.735L75.814,205.352L75.602,205.97L75.392,206.589L75.184,207.208L74.977,207.829L74.772,208.45L74.569,209.072L74.368,209.694L74.168,210.318L73.97,210.943L73.773,211.569L73.579,212.195L73.386,212.822L73.195,213.45L73.006,214.079L72.818,214.709L72.633,215.339L72.449,215.971L72.266,216.603L72.086,217.236L71.907,217.87L71.73,218.505L71.555,219.14L71.382,219.776L71.21,220.413L71.04,221.052L70.872,221.691L70.706,222.33L70.541,222.97L70.379,223.611L70.218,224.253L70.059,224.896L69.901,225.539L69.746,226.183L69.592,226.828L69.44,227.475L69.29,228.122L69.142,228.769L68.996,229.417L68.851,230.066L68.708,230.715L68.567,231.366L68.428,232.017L68.291,232.669L68.156,233.321L68.022,233.975L67.89,234.629L67.76,235.285L67.632,235.94L67.506,236.596L67.382,237.253L67.259,237.911L67.139,238.57L67.02,239.23L66.903,239.889L66.788,240.55L66.675,241.211L66.564,241.873L66.454,242.537L66.347,243.2L66.241,243.864L66.138,244.529L66.036,245.195L65.936,245.861L65.838,246.528L65.742,247.196L65.648,247.864L65.555,248.533L65.465,249.203L65.376,249.874L65.29,250.545L65.205,251.217L65.123,251.889L65.042,252.562L64.963,253.236L64.886,253.911L64.811,254.586L64.738,255.262L64.667,255.938L64.598,256.615L64.531,257.292L64.465,257.971L64.402,258.65L64.341,259.33L64.282,260.009L64.224,260.69L64.169,261.373L64.115,262.054L64.064,262.737L64.014,263.42L63.967,264.105L63.921,264.789L63.878,265.474L63.836,266.16L63.797,266.847L63.759,267.534L63.724,268.221L63.69,268.909L63.658,269.598L63.629,270.287L63.601,270.978L63.576,271.669L63.552,272.36L63.531,273.051L63.512,273.744L63.494,274.436L63.479,275.13L63.466,275.824L63.454,276.519L63.445,277.214L63.438,277.909L63.433,278.606L63.43,279.302L63.429,280L63.43,280.698L63.433,281.394L63.438,282.091L63.445,282.786L63.454,283.481L63.466,284.176L63.479,284.87L63.494,285.564L63.512,286.256L63.531,286.949L63.552,287.64L63.576,288.331L63.601,289.022L63.629,289.713L63.658,290.402L63.69,291.091L63.724,291.779L63.759,292.466L63.797,293.153L63.836,293.84L63.878,294.526L63.921,295.211L63.967,295.895L64.014,296.58L64.064,297.263L64.115,297.946L64.169,298.627L64.224,299.31L64.282,299.991L64.341,300.67L64.402,301.35L64.465,302.029L64.531,302.708L64.598,303.385L64.667,304.062L64.738,304.738L64.811,305.414L64.886,306.089L64.963,306.764L65.042,307.438L65.123,308.111L65.205,308.783L65.29,309.455L65.376,310.126L65.465,310.797L65.555,311.467L65.648,312.136L65.742,312.804L65.838,313.472L65.936,314.139L66.036,314.805L66.138,315.471L66.241,316.136L66.347,316.8L66.454,317.463L66.564,318.127L66.675,318.789L66.788,319.45L66.903,320.111L67.02,320.77L67.139,321.43L67.259,322.089L67.382,322.747L67.506,323.404L67.632,324.06L67.76,324.715L67.89,325.371L68.022,326.025L68.156,326.679L68.291,327.331L68.428,327.983L68.567,328.634L68.708,329.285L68.851,329.934L68.996,330.583L69.142,331.231L69.29,331.878L69.44,332.525L69.592,333.172L69.746,333.817L69.901,334.46L70.059,335.104L70.218,335.747L70.379,336.389L70.541,337.03L70.706,337.67L70.872,338.309L71.04,338.948L71.21,339.587L71.382,340.224L71.555,340.86L71.73,341.495L71.907,342.13L72.086,342.764L72.266,343.397L72.449,344.029L72.633,344.661L72.818,345.291L73.006,345.921L73.195,346.55L73.386,347.178L73.579,347.805L73.773,348.431L73.97,349.057L74.168,349.682L74.368,350.306L74.569,350.928L74.772,351.55L74.977,352.171L75.184,352.792L75.392,353.411L75.602,354.03L75.814,354.648L76.027,355.265L76.242,355.88L76.459,356.495L76.678,357.11L76.898,357.723L77.12,358.335L77.344,358.947L77.569,359.558L77.796,360.167L78.024,360.775L78.255,361.383L78.487,361.991L78.721,362.596L78.956,363.201L79.193,363.806L79.432,364.409L79.672,365.011L79.914,365.613L80.158,366.213L80.403,366.812L80.65,367.411L80.899,368.008L81.149,368.604L81.401,369.201L81.655,369.796L81.91,370.389L82.167,370.982L82.425,371.573L82.685,372.164L82.947,372.754L83.21,373.343L83.475,373.931L83.742,374.518L84.01,375.103L84.28,375.689L84.551,376.273L84.824,376.856L85.098,377.437L85.375,378.018L85.653,378.599L85.932,379.177L86.213,379.755L86.495,380.332L86.779,380.907L87.065,381.482L87.352,382.057L87.641,382.629L87.931,383.201L88.223,383.771L88.517,384.341L88.812,384.91L89.108,385.477L89.406,386.043L89.706,386.609L90.007,387.173L90.31,387.737L90.614,388.299L90.92,388.86L91.228,389.42L91.536,389.979L91.847,390.537L92.159,391.094L92.472,391.65L92.787,392.204L93.104,392.758L93.422,393.311L93.742,393.862L94.062,394.412L94.385,394.961L94.709,395.51L95.035,396.057L95.361,396.602L95.69,397.147L96.02,397.691L96.352,398.233L96.685,398.775L97.019,399.315L97.355,399.854L97.692,400.391L98.031,400.929L98.372,401.464L98.713,401.999L99.056,402.532L99.401,403.064L99.747,403.595L100.095,404.125L100.444,404.654L100.795,405.182L101.146,405.708L101.5,406.233L101.855,406.757L102.211,407.28L102.568,407.801L102.927,408.321L103.288,408.841L103.65,409.359L104.013,409.876L104.378,410.392L104.744,410.906L105.112,411.419L105.481,411.931L105.851,412.442L106.223,412.952L106.596,413.46L106.97,413.967L107.347,414.473L107.724,414.978L108.102,415.481L108.482,415.983L108.864,416.484L109.247,416.984L109.631,417.482L110.017,417.979L110.404,418.476L110.792,418.969L111.181,419.463L111.573,419.955L111.965,420.446L112.359,420.936L112.754,421.424L113.15,421.911L113.548,422.396L113.947,422.881L114.347,423.364L114.749,423.846L115.152,424.326L115.556,424.806L115.962,425.284L116.369,425.76L116.777,426.235L117.187,426.71L117.597,427.182L118.01,427.653L118.423,428.124L118.838,428.592L119.254,429.06L119.671,429.525L120.09,429.99L120.51,430.454L120.932,430.916L121.354,431.376L121.778,431.835L122.203,432.293L122.629,432.75L123.057,433.205L123.486,433.659L123.915,434.111L124.347,434.562L124.78,435.012L125.213,435.46L125.648,435.907L126.085,436.353L126.523,436.797L126.961,437.24L127.402,437.681L127.843,438.121L128.285,438.559L128.729,438.997L129.174,439.432L129.62,439.866L130.068,440.3L130.516,440.731L130.966,441.161L131.417,441.589L131.869,442.017L132.323,442.443L132.777,442.867L133.233,443.29L133.69,443.711L134.148,444.131L134.608,444.55L135.068,444.967L135.53,445.382L135.993,445.797L136.457,446.209L136.922,446.62L137.388,447.03L137.856,447.438L138.325,447.845L138.794,448.25L139.266,448.654L139.738,449.056L140.211,449.457L140.685,449.856L141.161,450.254L141.638,450.651L142.115,451.045L142.594,451.439L143.075,451.831L143.555,452.22L144.038,452.609L144.521,452.997L145.006,453.382L145.492,453.767L145.978,454.149L146.466,454.53L146.955,454.91L147.445,455.288L147.936,455.664L148.429,456.039L148.922,456.412L149.417,456.784L149.912,457.155L150.409,457.523L150.906,457.89L151.405,458.256L151.905,458.62L152.405,458.982L152.908,459.343L153.411,459.702L153.914,460.06L154.419,460.416L154.926,460.77L155.433,461.123L155.941,461.475L156.45,461.824L156.961,462.172L157.472,462.519L157.984,462.863L158.498,463.207L159.012,463.548L159.527,463.888L160.044,464.226L160.562,464.563L161.08,464.899L161.599,465.232L162.12,465.564L162.642,465.894L163.164,466.222L163.687,466.549L164.212,466.874L164.738,467.198L165.264,467.52L165.791,467.84L166.319,468.159L166.849,468.475L167.38,468.791L167.911,469.104L168.443,469.416L168.976,469.726L169.51,470.035L170.046,470.342L170.582,470.647L171.119,470.95L171.657,471.252L172.196,471.552L172.736,471.85L173.277,472.147L173.819,472.442L174.362,472.735L174.905,473.026L175.449,473.316L175.995,473.604L176.541,473.89L177.089,474.175L177.637,474.458L178.186,474.739L178.737,475.018L179.288,475.296L179.839,475.572L180.392,475.846L180.946,476.118L181.5,476.389L182.056,476.658L182.613,476.925L183.17,477.19L183.728,477.454L184.287,477.715L184.846,477.975L185.407,478.234L185.969,478.49L186.532,478.745L187.095,478.998L187.659,479.248L188.224,479.498L188.79,479.745L189.357,479.991L189.924,480.235L190.493,480.477L191.063,480.717L191.633,480.955L192.203,481.192L192.775,481.427L193.348,481.66L193.922,481.891L194.496,482.12L195.071,482.347L195.647,482.573L196.224,482.797L196.801,483.019L197.38,483.239L197.959,483.457L198.539,483.674L199.119,483.888L199.701,484.101L200.284,484.312L200.867,484.52L201.451,484.727L202.036,484.933L202.621,485.136L203.208,485.337L203.795,485.537L204.383,485.735L204.971,485.93L205.561,486.124L206.151,486.316L206.742,486.506L207.333,486.694L207.926,486.881L208.519,487.065L209.113,487.247L209.708,487.428L210.303,487.607L210.9,487.783L211.497,487.958L212.094,488.131L212.693,488.302L213.292,488.471L213.892,488.638L214.492,488.803L215.094,488.966L215.696,489.127L216.298,489.286L216.902,489.443L217.506,489.599L218.111,489.752L218.717,489.904L219.323,490.053L219.93,490.2L220.538,490.346L221.146,490.489L221.755,490.631L222.365,490.77L222.976,490.908L223.587,491.043L224.199,491.177L224.811,491.309L225.424,491.438L226.038,491.566L226.653,491.691L227.268,491.815L227.884,491.936L228.501,492.056L229.117,492.173L229.735,492.289L230.354,492.402L230.973,492.513L231.593,492.623L232.213,492.73L232.835,492.835L233.456,492.939L234.078,493.04L234.702,493.139L235.325,493.236L235.949,493.331L236.574,493.424L237.2,493.515L237.826,493.604L238.453,493.691L239.08,493.775L239.708,493.858L240.337,493.938L240.966,494.017L241.596,494.093L242.226,494.167L242.857,494.24L243.489,494.31L244.121,494.378L244.754,494.443L245.387,494.507L246.021,494.569L246.656,494.628L247.291,494.686L247.926,494.741L248.563,494.794L249.2,494.845L249.837,494.894L250.475,494.941L251.114,494.986L251.753,495.028L252.392,495.068L253.032,495.106L253.674,495.143L254.315,495.176L254.957,495.208L255.599,495.238L256.242,495.265L256.886,495.29L257.53,495.313L258.174,495.334L258.82,495.353L259.465,495.369L260.112,495.384L260.759,495.396L261.406,495.406L262.054,495.413L262.702,495.419L263.351,495.422L264,495.423L264.649,495.422L265.298,495.419L265.946,495.413L266.594,495.406L267.241,495.396L267.888,495.384L268.535,495.369L269.18,495.353L269.826,495.334L270.47,495.313L271.114,495.29L271.758,495.265L272.401,495.238L273.043,495.208L273.685,495.176L274.326,495.143L274.968,495.106L275.608,495.068L276.247,495.028L276.886,494.986L277.525,494.941L278.163,494.894L278.8,494.845L279.437,494.794L280.074,494.741L280.709,494.686L281.344,494.628L281.979,494.569L282.613,494.507L283.246,494.443L283.879,494.378L284.511,494.31L285.143,494.24L285.774,494.167L286.404,494.093L287.034,494.017L287.663,493.938L288.292,493.858L288.92,493.775L289.547,493.69L290.174,493.604L290.8,493.515L291.426,493.424L292.051,493.331L292.675,493.236L293.298,493.139L293.922,493.04L294.544,492.939L295.165,492.835L295.787,492.73L296.407,492.623L297.027,492.513L297.646,492.402L298.265,492.289L298.883,492.173L299.499,492.056L300.116,491.936L300.732,491.815L301.347,491.691L301.962,491.566L302.576,491.438L303.189,491.309L303.801,491.177L304.413,491.043L305.025,490.908L305.635,490.77L306.245,490.631L306.854,490.489L307.462,490.346L308.07,490.2L308.677,490.053L309.283,489.904L309.889,489.752L310.494,489.599L311.098,489.443L311.702,489.286L312.305,489.127L312.906,488.966L313.507,488.803L314.108,488.638L314.708,488.471L315.307,488.302L315.906,488.131L316.503,487.958L317.1,487.783L317.696,487.607L318.292,487.428L318.887,487.247L319.481,487.065L320.074,486.881L320.667,486.694L321.258,486.506L321.849,486.316L322.44,486.124L323.029,485.93L323.617,485.735L324.205,485.537L324.793,485.337L325.379,485.136L325.964,484.933L326.549,484.727L327.133,484.52L327.716,484.312L328.299,484.101L328.88,483.888L329.461,483.674L330.041,483.457L330.62,483.239L331.199,483.019L331.776,482.797L332.353,482.573L332.929,482.347L333.504,482.12L334.078,481.891L334.652,481.66L335.225,481.427L335.797,481.192L336.367,480.955L336.937,480.717L337.507,480.477L338.075,480.235L338.643,479.991L339.21,479.745L339.776,479.498L340.341,479.248L340.905,478.998L341.468,478.745L342.031,478.49L342.593,478.233L343.153,477.975L343.713,477.715L344.272,477.454L344.831,477.19L345.388,476.925L345.944,476.658L346.5,476.389L347.054,476.118L347.608,475.846L348.161,475.572L348.713,475.296L349.264,475.018L349.814,474.739L350.363,474.458L350.911,474.175L351.459,473.89L352.005,473.604L352.55,473.316L353.095,473.026L353.639,472.735L354.181,472.442L354.723,472.147L355.264,471.85L355.804,471.552L356.343,471.252L356.881,470.95L357.418,470.647L357.954,470.342L358.49,470.035L359.024,469.726L359.557,469.416L360.089,469.104L360.621,468.791L361.151,468.475L361.68,468.159L362.209,467.84L362.736,467.52L363.263,467.198L363.788,466.874L364.312,466.549L364.836,466.222L365.359,465.894L365.88,465.564L366.4,465.232L366.92,464.898L367.439,464.563L367.956,464.227L368.473,463.888L368.988,463.548L369.502,463.207L370.016,462.863L370.528,462.519L371.039,462.172L371.55,461.824L372.059,461.475L372.567,461.123L373.074,460.77L373.581,460.416L374.085,460.06L374.59,459.702L375.093,459.343L375.594,458.982L376.095,458.62L376.595,458.256L377.094,457.89L377.591,457.523L378.088,457.155L378.584,456.784L379.078,456.412L379.571,456.039L380.064,455.664L380.554,455.288L381.045,454.91L381.534,454.53L382.022,454.149L382.508,453.767L382.994,453.382L383.479,452.997L383.962,452.609L384.445,452.22L384.926,451.83L385.406,451.439L385.885,451.045L386.362,450.651L386.839,450.254L387.315,449.856L387.789,449.457L388.262,449.056L388.734,448.654L389.206,448.25L389.676,447.845L390.144,447.438L390.612,447.03L391.078,446.62L391.543,446.209L392.007,445.796L392.47,445.382L392.932,444.967L393.393,444.549L393.852,444.131L394.31,443.711L394.767,443.289L395.223,442.867L395.677,442.443L396.131,442.017L396.583,441.59L397.034,441.161L397.484,440.731L397.932,440.3L398.38,439.867L398.826,439.432L399.271,438.996L399.714,438.56L400.157,438.121L400.598,437.681L401.038,437.24L401.478,436.797L401.915,436.353L402.351,435.907L402.786,435.461L403.22,435.012L403.653,434.562L404.084,434.111L404.514,433.659L404.943,433.205L405.371,432.75L405.797,432.294L406.222,431.835L406.646,431.376L407.068,430.916L407.49,430.453L407.909,429.991L408.328,429.526L408.746,429.059L409.162,428.592L409.577,428.124L409.99,427.654L410.403,427.182L410.813,426.71L411.223,426.236L411.631,425.76L412.038,425.284L412.444,424.806L412.848,424.327L413.251,423.846L413.653,423.364L414.053,422.881L414.452,422.397L414.85,421.911L415.247,421.424L415.642,420.935L416.035,420.446L416.427,419.955L416.819,419.463L417.208,418.97L417.596,418.475L417.984,417.979L418.369,417.482L418.753,416.984L419.136,416.484L419.517,415.983L419.898,415.481L420.276,414.977L420.653,414.473L421.029,413.967L421.404,413.46L421.777,412.952L422.149,412.442L422.519,411.931L422.888,411.42L423.256,410.906L423.622,410.391L423.987,409.876L424.35,409.359L424.712,408.841L425.072,408.322L425.431,407.802L425.789,407.28L426.146,406.756L426.5,406.233L426.853,405.708L427.205,405.182L427.556,404.654L427.905,404.125L428.253,403.595L428.599,403.065L428.944,402.532L429.287,401.998L429.629,401.464L429.969,400.929L430.308,400.392L430.645,399.854L430.981,399.315L431.315,398.775L431.649,398.233L431.98,397.691L432.31,397.147L432.638,396.602L432.965,396.057L433.291,395.509L433.615,394.961L433.938,394.412L434.259,393.862L434.578,393.311L434.896,392.758L435.213,392.204L435.528,391.65L435.841,391.094L436.153,390.537L436.463,389.98L436.772,389.42L437.08,388.86L437.386,388.299L437.69,387.737L437.993,387.173L438.294,386.609L438.593,386.044L438.892,385.477L439.189,384.909L439.483,384.341L439.777,383.771L440.069,383.201L440.359,382.629L440.648,382.056L440.935,381.482L441.221,380.908L441.505,380.332L441.787,379.755L442.068,379.177L442.348,378.598L442.625,378.018L442.901,377.437L443.176,376.856L443.449,376.272L443.72,375.689L443.99,375.104L444.258,374.518L444.525,373.931L444.79,373.343L445.053,372.754L445.315,372.165L445.575,371.574L445.833,370.982L446.09,370.389L446.345,369.795L446.599,369.201L446.851,368.605L447.101,368.008L447.35,367.411L447.597,366.812L447.842,366.212L448.086,365.613L448.328,365.011L448.568,364.409L448.807,363.806L449.044,363.202L449.279,362.597L449.513,361.99L449.745,361.383L449.975,360.776L450.204,360.166L450.431,359.557L450.656,358.947L450.88,358.335L451.102,357.723L451.323,357.109L451.541,356.496L451.758,355.88L451.973,355.264L452.186,354.648L452.398,354.03L452.608,353.411L452.817,352.792L453.023,352.172L453.228,351.55L453.431,350.928L453.633,350.305L453.832,349.681L454.03,349.057L454.226,348.432L454.421,347.805L454.614,347.178L454.805,346.55L454.994,345.921L455.182,345.291L455.367,344.66L455.551,344.029L455.734,343.397L455.914,342.764L456.093,342.13L456.27,341.496L456.445,340.86L456.618,340.223L456.79,339.587L456.96,338.948L457.128,338.309L457.294,337.67L457.458,337.03L457.621,336.389L457.782,335.747L457.941,335.104L458.099,334.46L458.254,333.816L458.408,333.171L458.56,332.525L458.71,331.879L458.858,331.231L459.004,330.583L459.149,329.934L459.292,329.284L459.433,328.634L459.572,327.983L459.709,327.331L459.844,326.679L459.978,326.025L460.11,325.371L460.24,324.716L460.368,324.061L460.494,323.403L460.618,322.746L460.741,322.089L460.861,321.43L460.98,320.771L461.097,320.111L461.212,319.45L461.325,318.788L461.436,318.126L461.546,317.464L461.653,316.8L461.759,316.136L461.862,315.471L461.964,314.805L462.064,314.139L462.162,313.472L462.258,312.803L462.352,312.136L462.445,311.467L462.535,310.797L462.624,310.126L462.71,309.456L462.795,308.783L462.877,308.11L462.958,307.438L463.037,306.764L463.114,306.089L463.189,305.414L463.262,304.739L463.333,304.062L463.402,303.384L463.469,302.707L463.535,302.029L463.598,301.35L463.659,300.671L463.719,299.99L463.776,299.309L463.831,298.628L463.885,297.946L463.936,297.263L463.986,296.58L464.033,295.896L464.079,295.211L464.122,294.526L464.164,293.841L464.203,293.153L464.241,292.466L464.276,291.778L464.31,291.091L464.341,290.402L464.371,289.712L464.399,289.022L464.424,288.332L464.447,287.641L464.469,286.949L464.488,286.256L464.506,285.563L464.521,284.87L464.534,284.176L464.546,283.481L464.555,282.786L464.562,282.09L464.567,281.394L464.57,280.698L464.571,280L464.57,279.302L464.567,278.606L464.562,277.91L464.555,277.214L464.546,276.519L464.534,275.824L464.521,275.13L464.506,274.437L464.488,273.744L464.469,273.051L464.447,272.359L464.424,271.668L464.399,270.978L464.371,270.288L464.341,269.598L464.31,268.909L464.276,268.222L464.241,267.534L464.203,266.847L464.164,266.159L464.122,265.474L464.079,264.789L464.033,264.104L463.986,263.42L463.936,262.737L463.885,262.054L463.831,261.372L463.776,260.691L463.719,260.01L463.659,259.329L463.598,258.65L463.535,257.971L463.469,257.293L463.402,256.616L463.333,255.937L463.262,255.261L463.189,254.586L463.114,253.911L463.037,253.236L462.958,252.562L462.877,251.89L462.795,251.217L462.71,250.545L462.624,249.874L462.535,249.203L462.445,248.533L462.352,247.864L462.258,247.197L462.162,246.528L462.064,245.861L461.964,245.195L461.862,244.529L461.759,243.864L461.653,243.2L461.546,242.536L461.436,241.874L461.325,241.212L461.212,240.55L461.097,239.889L460.98,239.229L460.861,238.57L460.741,237.911L460.618,237.254L460.494,236.597L460.368,235.94L460.24,235.284L460.11,234.629L459.978,233.975L459.844,233.321L459.709,232.669L459.572,232.017L459.433,231.366L459.292,230.716L459.149,230.065L459.004,229.417L458.858,228.769L458.71,228.121L458.56,227.475L458.408,226.829L458.254,226.184L458.099,225.539L457.941,224.896L457.782,224.253L457.621,223.611L457.459,222.97L457.294,222.33L457.128,221.691L456.96,221.052L456.79,220.413L456.618,219.777L456.445,219.14L456.27,218.504L456.093,217.87L455.914,217.236L455.734,216.603L455.551,215.971L455.367,215.34L455.182,214.709L454.994,214.079L454.805,213.45L454.614,212.822L454.421,212.195L454.226,211.568L454.03,210.943L453.832,210.319L453.633,209.695L453.431,209.072L453.228,208.449L453.023,207.828L452.817,207.208L452.608,206.589L452.398,205.97L452.186,205.352L451.973,204.736L451.758,204.12L451.541,203.504L451.323,202.891L451.102,202.277L450.88,201.665L450.657,201.053L450.431,200.443L450.204,199.834L449.975,199.224L449.745,198.616L449.513,198.01L449.279,197.403L449.044,196.798L448.807,196.194L448.568,195.591L448.328,194.989L448.086,194.387L447.842,193.787L447.597,193.188L447.35,192.589L447.101,191.992L446.851,191.395L446.599,190.799L446.345,190.205L446.09,189.611L445.833,189.018L445.575,188.426L445.315,187.835L445.053,187.246L444.79,186.657L444.525,186.069L444.258,185.482L443.99,184.896L443.72,184.311L443.449,183.728L443.176,183.145L442.901,182.562L442.625,181.981L442.348,181.402L442.068,180.823L441.787,180.245L441.505,179.668L441.221,179.092L440.935,178.518L440.648,177.944L440.359,177.371L440.069,176.799L439.777,176.229L439.484,175.659L439.189,175.091L438.892,174.523L438.593,173.956L438.294,173.391L437.993,172.827L437.69,172.263L437.386,171.701L437.08,171.14L436.772,170.58L436.463,170.02L436.153,169.463L435.841,168.906L435.528,168.35L435.213,167.796L434.896,167.242L434.578,166.689L434.259,166.138L433.938,165.588L433.615,165.039L433.291,164.491L432.965,163.943L432.638,163.397L432.31,162.853L431.98,162.309L431.648,161.767L431.315,161.225L430.981,160.685L430.645,160.146L430.308,159.608L429.969,159.072L429.628,158.536L429.287,158.001L428.944,157.468L428.599,156.935L428.253,156.405L427.905,155.875L427.556,155.346L427.205,154.819L426.853,154.292L426.5,153.767L426.146,153.243L425.789,152.721L425.431,152.198L425.072,151.678L424.712,151.159L424.35,150.641L423.987,150.124L423.622,149.609L423.256,149.094L422.888,148.58L422.519,148.069L422.149,147.558L421.777,147.048L421.404,146.54L421.029,146.033L420.653,145.527L420.276,145.023L419.897,144.519L419.517,144.017L419.136,143.516L418.753,143.016L418.369,142.518L417.984,142.021L417.596,141.525L417.208,141.03L416.818,140.537L416.427,140.045L416.035,139.554L415.642,139.064L415.247,138.576L414.85,138.089L414.452,137.603L414.053,137.119L413.653,136.636L413.251,136.154L412.848,135.673L412.444,135.194L412.038,134.716L411.631,134.24L411.223,133.764L410.813,133.29L410.402,132.818L409.99,132.346L409.577,131.876L409.162,131.408L408.746,130.941L408.328,130.474L407.91,130.01L407.49,129.547L407.068,129.084L406.646,128.624L406.222,128.165L405.797,127.706L405.371,127.25L404.943,126.795L404.514,126.341L404.084,125.889L403.653,125.438L403.22,124.988L402.786,124.539L402.351,124.093L401.915,123.647L401.477,123.203L401.038,122.76L400.599,122.319L400.157,121.879L399.714,121.44L399.271,121.004L398.826,120.568L398.38,120.133L397.932,119.7L397.484,119.269L397.034,118.839L396.583,118.41L396.131,117.983L395.677,117.557L395.223,117.133L394.767,116.71L394.31,116.289L393.852,115.869L393.393,115.451L392.932,115.033L392.47,114.618L392.007,114.204L391.543,113.791L391.078,113.38L390.612,112.97L390.144,112.562L389.676,112.155L389.206,111.75L388.734,111.346L388.262,110.944L387.789,110.543L387.315,110.144L386.839,109.746L386.362,109.349L385.885,108.955L385.406,108.561L384.926,108.17L384.444,107.779L383.962,107.391L383.479,107.003L382.994,106.618L382.508,106.233L382.022,105.851L381.534,105.47L381.045,105.09L380.554,104.712L380.064,104.336L379.571,103.961L379.078,103.588L378.584,103.216L378.088,102.845L377.591,102.477L377.094,102.11L376.595,101.744L376.095,101.38L375.594,101.018L375.093,100.657L374.59,100.298L374.085,99.94L373.58,99.584L373.074,99.23L372.567,98.877L372.059,98.526L371.55,98.176L371.039,97.828L370.528,97.482L370.016,97.137L369.502,96.793L368.988,96.452L368.473,96.112L367.956,95.773L367.439,95.437L366.92,95.102L366.4,94.768L365.88,94.436L365.359,94.106L364.836,93.778L364.312,93.451L363.788,93.126L363.263,92.802L362.736,92.48L362.209,92.16L361.68,91.841L361.151,91.525L360.621,91.209L360.089,90.896L359.557,90.584L359.024,90.274L358.49,89.965L357.954,89.658L357.418,89.353L356.881,89.05L356.343,88.748L355.804,88.448L355.264,88.15L354.723,87.853L354.181,87.558L353.639,87.265L353.095,86.974L352.55,86.684L352.005,86.396L351.458,86.109L350.911,85.825L350.363,85.542L349.814,85.261L349.264,84.982L348.713,84.704L348.161,84.428L347.608,84.154L347.054,83.882L346.5,83.611L345.944,83.342L345.388,83.075L344.831,82.81L344.272,82.546L343.713,82.285L343.153,82.025L342.593,81.766L342.031,81.51L341.468,81.255L340.905,81.003L340.341,80.751L339.776,80.502L339.21,80.255L338.643,80.009L338.075,79.765L337.507,79.523L336.938,79.283L336.367,79.045L335.797,78.808L335.225,78.573L334.652,78.34L334.078,78.109L333.504,77.88L332.929,77.652L332.353,77.427L331.776,77.203L331.199,76.981L330.62,76.761L330.041,76.543L329.461,76.326L328.88,76.112L328.299,75.899L327.716,75.689L327.133,75.48L326.549,75.273L325.964,75.067L325.379,74.864L324.792,74.663L324.205,74.463L323.617,74.265L323.029,74.07L322.44,73.876L321.849,73.684L321.258,73.494L320.667,73.306L320.074,73.119L319.481,72.935L318.887,72.753L318.292,72.572L317.697,72.393L317.1,72.217L316.503,72.042L315.906,71.869L315.307,71.698L314.708,71.529L314.108,71.362L313.508,71.197L312.906,71.034L312.304,70.873L311.701,70.714L311.098,70.557L310.494,70.401L309.889,70.248L309.283,70.096L308.677,69.947L308.07,69.8L307.462,69.654L306.854,69.511L306.245,69.369L305.635,69.23L305.025,69.092L304.413,68.957L303.801,68.823L303.189,68.691L302.576,68.562L301.962,68.434L301.347,68.309L300.732,68.185L300.116,68.064L299.5,67.944L298.882,67.827L298.265,67.711L297.646,67.598L297.027,67.487L296.407,67.377L295.787,67.27L295.166,67.165L294.544,67.061L293.922,66.96L293.298,66.861L292.675,66.764L292.051,66.669L291.426,66.576L290.8,66.485L290.174,66.396L289.547,66.309L288.92,66.225L288.292,66.142L287.663,66.062L287.034,65.983L286.404,65.907L285.774,65.833L285.143,65.76L284.511,65.69L283.879,65.622L283.246,65.557L282.613,65.493L281.979,65.431L281.344,65.372L280.709,65.314L280.073,65.259L279.437,65.206L278.8,65.155L278.163,65.106L277.525,65.059L276.886,65.014L276.247,64.972L275.607,64.932L274.967,64.893L274.326,64.857L273.685,64.824L273.043,64.792L272.401,64.762L271.758,64.735L271.114,64.71L270.47,64.687L269.825,64.666L269.18,64.647L268.535,64.631L267.888,64.616L267.242,64.604L266.594,64.594L265.946,64.587L265.298,64.581L264.649,64.578L264,64.577L263.351,64.578Z" style="fill:rgb(20,20,20);"/>
                </g>
            </g>
        </g>
    </g>
</svg>
