<?xml version="1.0" encoding="UTF-8" standalone="no"?><!DOCTYPE svg PUBLIC "-//W3C//DTD SVG 1.1//EN" "http://www.w3.org/Graphics/SVG/1.1/DTD/svg11.dtd"><svg width="100%" height="100%" viewBox="0 0 512 512" version="1.1" xmlns="http://www.w3.org/2000/svg" xmlns:xlink="http://www.w3.org/1999/xlink" xml:space="preserve" xmlns:serif="http://www.serif.com/" style="fill-rule:evenodd;clip-rule:evenodd;stroke-linecap:round;stroke-linejoin:round;stroke-miterlimit:1.5;"><rect id="Light-Clock" serif:id="Light Clock" x="0" y="0" width="512" height="512" style="fill:#fff;fill-opacity:0;"/><circle id="Reflect" cx="256" cy="256" r="248" style="fill:#f3f3f3;"/><circle cx="256" cy="256" r="224" style="fill:#c9c9c9;"/><g id="Indicators"><g id="Tiny-indicators" serif:id="Tiny indicators"><path d="M397.421,114.579l11.314,-11.314" style="fill:none;stroke:#343434;stroke-width:1px;"/><path d="M449.185,204.236l15.455,-4.141" style="fill:none;stroke:#343434;stroke-width:1px;"/><path d="M449.185,307.764l15.455,4.141" style="fill:none;stroke:#343434;stroke-width:1px;"/><path d="M397.421,397.421l11.314,11.314" style="fill:none;stroke:#343434;stroke-width:1px;"/><path d="M307.764,449.185l4.141,15.455" style="fill:none;stroke:#343434;stroke-width:1px;"/><path d="M204.236,449.185l-4.141,15.455" style="fill:none;stroke:#343434;stroke-width:1px;"/><path d="M114.579,397.421l-11.314,11.314" style="fill:none;stroke:#343434;stroke-width:1px;"/></g><g id="Bold-indicators" serif:id="Bold indicators"><path d="M142.961,436.21l13.856,8l6.928,-12l-13.856,-8l-6.928,12Z" style="fill:#262626;fill-opacity:0.71;"/><path d="M68.077,355.47l8,13.856l12,-6.928l-8,-13.856l-12,6.928Z" style="fill:#262626;fill-opacity:0.71;"/><path d="M76.077,142.884l-8,13.856l12,6.928l8,-13.856l-12,-6.928Z" style="fill:#262626;fill-opacity:0.71;"/><path d="M156.817,68l-13.856,8l6.928,12l13.856,-8l-6.928,-12Z" style="fill:#262626;fill-opacity:0.71;"/><path d="M436.287,369.326l8,-13.856l-12,-6.928l-8,13.856l12,6.928Z" style="fill:#262626;fill-opacity:0.71;"/><path d="M355.547,444.21l13.856,-8l-6.928,-12l-13.856,8l6.928,12Z" style="fill:#262626;fill-opacity:0.71;"/><path d="M444.287,156.74l-8,-13.856l-12,6.928l8,13.856l12,-6.928Z" style="fill:#262626;fill-opacity:0.71;"/><path d="M369.403,76l-13.856,-8l-6.928,12l13.856,8l6.928,-12Z" style="fill:#262626;fill-opacity:0.71;"/></g></g><path d="M280,66c0,-5.519 -4.481,-10 -10,-10l-28,0c-5.519,0 -10,4.481 -10,10l0,20c0,5.519 4.481,10 10,10l28,0c5.519,0 10,-4.481 10,-10l0,-20Z" style="fill:#fff;fill-opacity:0.31;"/><g id="Numbers"><path d="M255.815,448.462c-1.395,0 -2.673,-0.303 -3.833,-0.908c-1.16,-0.606 -2.073,-1.478 -2.74,-2.617c-0.667,-1.14 -1.001,-2.469 -1.001,-3.987c0,-1.068 0.165,-2.12 0.493,-3.156c0.328,-1.037 1.026,-2.53 2.094,-4.48c1.067,-1.95 2.771,-4.854 5.11,-8.713l2.956,1.724c-2.011,3.038 -3.602,5.583 -4.772,7.636c-0.082,0.143 -0.164,0.287 -0.246,0.431c-0.082,0.143 -0.154,0.246 -0.216,0.308c0.329,-0.308 0.77,-0.555 1.324,-0.739c0.554,-0.185 1.19,-0.278 1.909,-0.278c1.355,0 2.555,0.324 3.602,0.97c1.047,0.647 1.852,1.509 2.417,2.587c0.564,1.077 0.847,2.242 0.847,3.494c0,1.601 -0.339,2.986 -1.016,4.156c-0.678,1.17 -1.617,2.058 -2.818,2.664c-1.2,0.605 -2.57,0.908 -4.11,0.908Zm0.216,-3.017c1.293,0 2.314,-0.411 3.063,-1.232c0.749,-0.821 1.124,-1.878 1.124,-3.171c0,-1.355 -0.385,-2.427 -1.155,-3.217c-0.769,-0.791 -1.749,-1.186 -2.94,-1.186c-1.313,0 -2.365,0.4 -3.156,1.201c-0.79,0.8 -1.185,1.888 -1.185,3.263c0,1.253 0.405,2.289 1.216,3.11c0.811,0.821 1.822,1.232 3.033,1.232Z" style="fill:#575757;fill-opacity:0.47;fill-rule:nonzero;"/><path d="M438.835,267.546c-1.314,0 -2.632,-0.19 -3.956,-0.57c-1.324,-0.38 -2.284,-0.867 -2.879,-1.462l1.447,-2.925c0.616,0.492 1.396,0.918 2.34,1.277c0.944,0.36 1.909,0.539 2.894,0.539c3.51,0 5.265,-1.426 5.265,-4.279c0,-1.211 -0.477,-2.186 -1.432,-2.925c-0.954,-0.739 -2.242,-1.109 -3.864,-1.109c-1.129,0 -2.083,0.062 -2.863,0.185l5.665,-8.805l-8.498,0l0,-3.018l14.625,0l-6.404,9.145c1.293,0.041 2.437,0.348 3.433,0.923c0.995,0.575 1.76,1.329 2.293,2.263c0.534,0.934 0.801,1.965 0.801,3.094c0,1.478 -0.349,2.797 -1.047,3.957c-0.698,1.159 -1.714,2.068 -3.048,2.724c-1.334,0.657 -2.925,0.986 -4.772,0.986Z" style="fill:#575757;fill-opacity:0.47;fill-rule:nonzero;"/><path d="M73.073,260.572c0.082,-0.144 0.308,-0.523 0.677,-1.139c0.369,-0.616 0.657,-1.047 0.862,-1.293c-0.759,0.677 -1.857,1.016 -3.294,1.016c-1.355,0 -2.561,-0.318 -3.618,-0.955c-1.057,-0.636 -1.878,-1.508 -2.463,-2.617c-0.585,-1.108 -0.877,-2.34 -0.877,-3.694c0,-1.458 0.338,-2.746 1.016,-3.864c0.677,-1.119 1.626,-1.986 2.848,-2.602c1.221,-0.616 2.632,-0.923 4.233,-0.923c1.396,0 2.668,0.302 3.818,0.908c1.149,0.605 2.057,1.483 2.724,2.632c0.667,1.15 1.001,2.484 1.001,4.003c0,0.985 -0.133,1.939 -0.4,2.863c-0.267,0.924 -0.883,2.33 -1.848,4.218c-0.964,1.888 -2.514,4.68 -4.649,8.374l-4.002,0l3.972,-6.927Zm-0.924,-4.372c1.252,0 2.283,-0.38 3.094,-1.139c0.811,-0.759 1.216,-1.796 1.216,-3.11c0,-1.313 -0.4,-2.386 -1.2,-3.217c-0.801,-0.831 -1.807,-1.247 -3.018,-1.247c-1.313,0 -2.365,0.416 -3.155,1.247c-0.791,0.831 -1.186,1.893 -1.186,3.187c0,1.334 0.411,2.381 1.232,3.14c0.821,0.759 1.827,1.139 3.017,1.139Z" style="fill:#575757;fill-opacity:0.47;fill-rule:nonzero;"/><path d="M243.5,64.985l3.479,-0.985l0,23.276l-3.479,0l0,-22.291Z" style="fill:#575757;fill-opacity:0.47;fill-rule:nonzero;"/><path d="M260.711,77.762c0.964,-1.293 1.77,-2.494 2.416,-3.602c0.647,-1.108 0.97,-2.135 0.97,-3.079c0,-1.149 -0.302,-2.027 -0.908,-2.632c-0.605,-0.606 -1.514,-0.908 -2.725,-0.908c-1.108,0 -2.001,0.308 -2.678,0.923c-0.678,0.616 -1.242,1.365 -1.694,2.248l-2.863,-1.54c0.718,-1.375 1.663,-2.534 2.833,-3.479c1.17,-0.944 2.668,-1.416 4.495,-1.416c2.278,0 4.023,0.59 5.234,1.77c1.211,1.181 1.816,2.725 1.816,4.634c0,2.484 -1.231,5.234 -3.694,8.251l-4.188,5.296l8.775,0l0,3.048l-15.394,0l7.605,-9.514Z" style="fill:#575757;fill-opacity:0.47;fill-rule:nonzero;"/></g><circle id="Background" cx="256" cy="256" r="160" style="fill-opacity:0.03;"/><ellipse id="Frame" cx="256" cy="256.07" rx="224" ry="223.93" style="fill:none;"/><clipPath id="_clip1"><ellipse cx="256" cy="256.07" rx="224" ry="223.93"/></clipPath><g clip-path="url(#_clip1)"><circle id="Reflect--Ellipse-" serif:id="Reflect (Ellipse)" cx="443.419" cy="165.903" r="256" style="fill-opacity:0.02;"/></g><path d="M256.724,32.142l0.724,0.003l0.723,0.006l0.722,0.008l0.722,0.01l0.722,0.013l0.72,0.015l0.721,0.017l0.72,0.019l0.719,0.022l0.718,0.024l0.718,0.026l0.718,0.028l0.717,0.031l0.716,0.033l0.716,0.035l0.715,0.038l0.714,0.039l0.714,0.042l0.714,0.044l0.712,0.047l0.713,0.048l0.711,0.051l0.711,0.053l0.71,0.055l0.71,0.058l0.709,0.059l0.709,0.062l0.707,0.064l0.708,0.066l0.706,0.069l0.706,0.071l0.705,0.072l0.705,0.075l0.704,0.078l0.703,0.079l0.703,0.081l0.702,0.084l0.701,0.086l0.701,0.088l0.7,0.09l0.699,0.093l0.699,0.094l0.698,0.097l0.697,0.098l0.697,0.101l0.696,0.103l0.695,0.106l0.694,0.107l0.694,0.109l0.693,0.112l0.693,0.114l0.691,0.116l0.691,0.117l0.691,0.121l0.689,0.122l0.689,0.124l0.688,0.126l0.687,0.129l0.687,0.13l0.686,0.133l0.685,0.135l0.684,0.136l0.684,0.139l0.683,0.141l0.682,0.143l0.681,0.145l0.681,0.148l0.68,0.149l0.679,0.151l0.678,0.153l0.678,0.156l0.676,0.157l0.676,0.16l0.676,0.161l0.674,0.164l0.674,0.166l0.672,0.167l0.672,0.17l0.671,0.172l0.671,0.173l0.669,0.176l0.669,0.178l0.668,0.179l0.667,0.182l0.666,0.184l0.666,0.186l0.664,0.187l0.664,0.19l0.663,0.192l0.662,0.194l0.662,0.195l0.66,0.198l0.659,0.2l0.659,0.201l0.658,0.204l0.657,0.206l0.656,0.207l0.655,0.21l0.655,0.211l0.653,0.213l0.653,0.216l0.651,0.217l0.651,0.219l0.65,0.222l0.649,0.223l0.648,0.225l0.648,0.227l0.646,0.229l0.645,0.23l0.645,0.233l0.644,0.235l0.642,0.236l0.642,0.239l0.641,0.24l0.64,0.242l0.639,0.245l0.638,0.246l0.637,0.248l0.636,0.249l0.635,0.252l0.635,0.254l0.633,0.255l0.632,0.258l0.632,0.259l0.63,0.261l0.629,0.263l0.629,0.265l0.627,0.266l0.627,0.269l0.626,0.27l0.624,0.272l0.624,0.274l0.622,0.276l0.622,0.278l0.621,0.28l0.619,0.281l0.619,0.283l0.617,0.285l0.617,0.287l0.616,0.289l0.614,0.29l0.614,0.292l0.612,0.295l0.612,0.295l0.61,0.298l0.609,0.3l0.609,0.301l0.607,0.303l0.606,0.305l0.606,0.306l0.604,0.309l0.603,0.31l0.602,0.312l0.601,0.313l0.6,0.316l0.599,0.317l0.598,0.319l0.596,0.321l0.596,0.322l0.595,0.324l0.593,0.326l0.592,0.328l0.592,0.33l0.59,0.331l0.589,0.333l0.588,0.334l0.587,0.337l0.586,0.338l0.584,0.339l0.584,0.342l0.582,0.343l0.581,0.345l0.58,0.347l0.579,0.348l0.578,0.35l0.577,0.351l0.576,0.354l0.574,0.355l0.573,0.357l0.573,0.358l0.571,0.36l0.569,0.362l0.569,0.363l0.568,0.365l0.566,0.367l0.565,0.368l0.564,0.37l0.563,0.372l0.561,0.373l0.561,0.375l0.559,0.377l0.558,0.378l0.557,0.38l0.556,0.382l0.554,0.383l0.553,0.384l0.552,0.387l0.551,0.388l0.55,0.389l0.548,0.392l0.547,0.392l0.546,0.395l0.545,0.396l0.543,0.397l0.543,0.4l0.54,0.4l0.54,0.403l0.539,0.404l0.537,0.405l0.536,0.407l0.535,0.409l0.533,0.41l0.532,0.412l0.531,0.413l0.53,0.415l0.528,0.417l0.527,0.418l0.526,0.419l0.524,0.421l0.524,0.423l0.521,0.424l0.521,0.426l0.519,0.427l0.518,0.429l0.517,0.43l0.516,0.432l0.514,0.433l0.512,0.435l0.512,0.436l0.51,0.438l0.509,0.439l0.507,0.441l0.506,0.442l0.505,0.444l0.503,0.445l0.503,0.447l0.5,0.448l0.5,0.45l0.498,0.451l0.496,0.453l0.496,0.454l0.494,0.456l0.492,0.457l0.491,0.458l0.49,0.46l0.489,0.462l0.487,0.463l0.485,0.464l0.485,0.466l0.482,0.467l0.482,0.468l0.48,0.47l0.479,0.472l0.477,0.473l0.476,0.474l0.474,0.476l0.473,0.477l0.472,0.478l0.47,0.48l0.469,0.482l0.467,0.482l0.466,0.485l0.465,0.485l0.463,0.487l0.461,0.488l0.46,0.49l0.459,0.491l0.457,0.492l0.456,0.494l0.454,0.495l0.453,0.497l0.451,0.498l0.45,0.499l0.448,0.5l0.447,0.502l0.446,0.504l0.444,0.504l0.442,0.506l0.441,0.508l0.44,0.508l0.438,0.51l0.436,0.511l0.435,0.513l0.433,0.514l0.432,0.515l0.431,0.517l0.429,0.518l0.427,0.519l0.426,0.52l0.424,0.522l0.423,0.523l0.421,0.524l0.42,0.526l0.418,0.527l0.416,0.528l0.415,0.529l0.414,0.531l0.412,0.532l0.41,0.533l0.409,0.535l0.407,0.536l0.406,0.537l0.404,0.538l0.402,0.54l0.401,0.54l0.399,0.542l0.398,0.544l0.396,0.544l0.395,0.546l0.393,0.547l0.391,0.548l0.39,0.55l0.388,0.55l0.386,0.552l0.385,0.553l0.384,0.554l0.381,0.556l0.38,0.557l0.378,0.557l0.377,0.559l0.375,0.561l0.374,0.561l0.372,0.563l0.37,0.564l0.368,0.565l0.367,0.566l0.365,0.567l0.364,0.569l0.362,0.569l0.36,0.571l0.358,0.572l0.357,0.573l0.355,0.574l0.354,0.576l0.352,0.576l0.35,0.578l0.348,0.579l0.347,0.58l0.345,0.581l0.343,0.582l0.342,0.583l0.339,0.585l0.339,0.585l0.336,0.587l0.335,0.588l0.333,0.589l0.331,0.59l0.33,0.591l0.327,0.592l0.326,0.593l0.325,0.595l0.322,0.595l0.321,0.597l0.319,0.597l0.318,0.599l0.315,0.6l0.314,0.601l0.312,0.601l0.31,0.603l0.309,0.604l0.306,0.605l0.305,0.606l0.303,0.608l0.302,0.608l0.299,0.609l0.298,0.61l0.296,0.612l0.294,0.612l0.293,0.613l0.29,0.615l0.289,0.615l0.287,0.616l0.285,0.618l0.283,0.618l0.282,0.62l0.279,0.62l0.278,0.621l0.276,0.623l0.274,0.623l0.273,0.625l0.27,0.625l0.269,0.626l0.266,0.628l0.265,0.628l0.263,0.629l0.261,0.63l0.26,0.632l0.257,0.632l0.256,0.633l0.253,0.634l0.252,0.635l0.25,0.636l0.248,0.637l0.246,0.638l0.244,0.638l0.243,0.64l0.24,0.641l0.239,0.641l0.236,0.643l0.235,0.643l0.233,0.645l0.231,0.645l0.229,0.646l0.227,0.647l0.225,0.648l0.223,0.649l0.221,0.649l0.22,0.651l0.217,0.652l0.216,0.652l0.213,0.653l0.212,0.654l0.209,0.655l0.208,0.656l0.205,0.657l0.204,0.658l0.202,0.658l0.199,0.66l0.198,0.66l0.196,0.661l0.194,0.662l0.192,0.662l0.189,0.664l0.188,0.664l0.186,0.666l0.184,0.666l0.182,0.667l0.179,0.667l0.178,0.669l0.176,0.669l0.174,0.67l0.172,0.671l0.169,0.672l0.168,0.673l0.166,0.673l0.163,0.674l0.162,0.675l0.159,0.676l0.158,0.676l0.155,0.678l0.154,0.678l0.151,0.679l0.149,0.679l0.147,0.681l0.146,0.681l0.143,0.682l0.141,0.682l0.139,0.684l0.136,0.684l0.135,0.685l0.133,0.686l0.131,0.686l0.128,0.687l0.126,0.688l0.125,0.689l0.122,0.689l0.12,0.69l0.118,0.691l0.116,0.691l0.114,0.692l0.111,0.693l0.11,0.694l0.107,0.694l0.105,0.695l0.103,0.696l0.101,0.696l0.099,0.697l0.097,0.698l0.094,0.698l0.093,0.7l0.09,0.699l0.088,0.701l0.086,0.701l0.084,0.702l0.081,0.702l0.08,0.703l0.077,0.704l0.075,0.704l0.073,0.705l0.07,0.706l0.069,0.706l0.066,0.707l0.064,0.708l0.062,0.708l0.06,0.709l0.057,0.709l0.055,0.711l0.053,0.71l0.051,0.712l0.049,0.712l0.046,0.712l0.044,0.713l0.042,0.714l0.04,0.714l0.037,0.715l0.035,0.716l0.033,0.716l0.031,0.716l0.029,0.718l0.026,0.717l0.024,0.719l0.021,0.719l0.02,0.719l0.017,0.72l0.015,0.721l0.012,0.721l0.011,0.722l0.008,0.722l0.005,0.723l0.004,0.723l0.001,0.724l-0.001,0.724l-0.004,0.723l-0.005,0.723l-0.008,0.723l-0.011,0.721l-0.012,0.722l-0.015,0.72l-0.017,0.72l-0.02,0.72l-0.021,0.719l-0.024,0.718l-0.026,0.718l-0.029,0.717l-0.031,0.717l-0.033,0.716l-0.035,0.715l-0.037,0.715l-0.04,0.715l-0.042,0.713l-0.044,0.713l-0.046,0.713l-0.049,0.712l-0.051,0.711l-0.053,0.711l-0.055,0.71l-0.057,0.709l-0.06,0.709l-0.062,0.709l-0.064,0.707l-0.066,0.707l-0.069,0.706l-0.07,0.706l-0.073,0.705l-0.075,0.705l-0.077,0.703l-0.08,0.703l-0.081,0.703l-0.084,0.702l-0.086,0.701l-0.088,0.7l-0.09,0.7l-0.093,0.699l-0.094,0.699l-0.097,0.697l-0.099,0.697l-0.101,0.697l-0.103,0.695l-0.105,0.695l-0.107,0.695l-0.11,0.693l-0.111,0.693l-0.114,0.692l-0.116,0.692l-0.118,0.691l-0.12,0.69l-0.122,0.689l-0.125,0.689l-0.126,0.687l-0.128,0.688l-0.131,0.686l-0.133,0.686l-0.135,0.685l-0.136,0.684l-0.139,0.683l-0.141,0.683l-0.143,0.682l-0.146,0.681l-0.147,0.68l-0.149,0.68l-0.151,0.679l-0.154,0.678l-0.155,0.677l-0.158,0.677l-0.159,0.675l-0.162,0.675l-0.163,0.674l-0.166,0.674l-0.168,0.672l-0.169,0.672l-0.172,0.671l-0.174,0.67l-0.176,0.67l-0.178,0.668l-0.179,0.668l-0.182,0.667l-0.184,0.666l-0.186,0.665l-0.188,0.664l-0.189,0.664l-0.192,0.663l-0.194,0.662l-0.196,0.661l-0.198,0.66l-0.199,0.659l-0.202,0.659l-0.204,0.657l-0.205,0.657l-0.208,0.656l-0.209,0.655l-0.212,0.654l-0.213,0.653l-0.216,0.653l-0.217,0.651l-0.22,0.651l-0.221,0.65l-0.223,0.649l-0.225,0.648l-0.227,0.647l-0.229,0.646l-0.231,0.645l-0.233,0.644l-0.235,0.644l-0.236,0.642l-0.239,0.642l-0.24,0.64l-0.243,0.64l-0.244,0.639l-0.246,0.638l-0.248,0.637l-0.25,0.636l-0.252,0.635l-0.253,0.634l-0.256,0.633l-0.257,0.632l-0.26,0.631l-0.261,0.63l-0.263,0.63l-0.265,0.628l-0.266,0.627l-0.269,0.627l-0.27,0.625l-0.273,0.624l-0.274,0.624l-0.276,0.622l-0.278,0.622l-0.279,0.62l-0.282,0.619l-0.283,0.619l-0.285,0.617l-0.287,0.617l-0.289,0.615l-0.29,0.614l-0.293,0.614l-0.294,0.612l-0.296,0.611l-0.298,0.611l-0.299,0.609l-0.302,0.608l-0.303,0.607l-0.305,0.606l-0.306,0.605l-0.309,0.604l-0.31,0.603l-0.312,0.602l-0.314,0.601l-0.315,0.6l-0.318,0.598l-0.319,0.598l-0.321,0.596l-0.322,0.596l-0.325,0.594l-0.326,0.593l-0.327,0.593l-0.33,0.591l-0.331,0.59l-0.333,0.589l-0.335,0.587l-0.336,0.587l-0.339,0.586l-0.339,0.584l-0.342,0.583l-0.343,0.583l-0.345,0.581l-0.347,0.58l-0.348,0.579l-0.35,0.577l-0.352,0.577l-0.354,0.575l-0.355,0.574l-0.357,0.574l-0.358,0.572l-0.36,0.57l-0.362,0.57l-0.364,0.568l-0.365,0.568l-0.367,0.566l-0.368,0.565l-0.37,0.564l-0.372,0.562l-0.374,0.562l-0.375,0.56l-0.377,0.559l-0.378,0.558l-0.38,0.557l-0.381,0.555l-0.384,0.554l-0.385,0.553l-0.386,0.552l-0.388,0.551l-0.39,0.549l-0.391,0.549l-0.393,0.547l-0.395,0.545l-0.396,0.545l-0.398,0.543l-0.399,0.542l-0.401,0.541l-0.402,0.539l-0.404,0.539l-0.406,0.537l-0.407,0.536l-0.409,0.534l-0.41,0.533l-0.412,0.532l-0.414,0.531l-0.415,0.53l-0.416,0.528l-0.418,0.527l-0.42,0.525l-0.421,0.525l-0.423,0.523l-0.424,0.521l-0.426,0.521l-0.427,0.519l-0.429,0.518l-0.431,0.516l-0.432,0.516l-0.433,0.514l-0.435,0.512l-0.436,0.511l-0.438,0.51l-0.44,0.509l-0.441,0.507l-0.442,0.506l-0.444,0.505l-0.446,0.503l-0.447,0.502l-0.448,0.501l-0.45,0.499l-0.451,0.498l-0.453,0.496l-0.454,0.495l-0.456,0.494l-0.457,0.493l-0.459,0.491l-0.46,0.489l-0.461,0.489l-0.463,0.486l-0.465,0.486l-0.466,0.484l-0.467,0.483l-0.469,0.481l-0.47,0.48l-0.472,0.479l-0.473,0.477l-0.474,0.475l-0.476,0.475l-0.477,0.473l-0.479,0.471l-0.48,0.47l-0.482,0.469l-0.482,0.467l-0.485,0.466l-0.485,0.464l-0.487,0.463l-0.489,0.461l-0.49,0.46l-0.491,0.459l-0.492,0.457l-0.494,0.455l-0.496,0.454l-0.496,0.453l-0.498,0.451l-0.5,0.45l-0.5,0.448l-0.503,0.447l-0.503,0.445l-0.505,0.444l-0.506,0.442l-0.507,0.441l-0.509,0.44l-0.51,0.437l-0.512,0.437l-0.512,0.435l-0.514,0.433l-0.516,0.432l-0.517,0.43l-0.518,0.429l-0.519,0.427l-0.521,0.425l-0.521,0.425l-0.524,0.422l-0.524,0.421l-0.526,0.42l-0.527,0.418l-0.528,0.416l-0.53,0.415l-0.531,0.414l-0.532,0.411l-0.533,0.411l-0.535,0.408l-0.536,0.407l-0.537,0.406l-0.539,0.404l-0.54,0.402l-0.54,0.401l-0.543,0.399l-0.543,0.398l-0.545,0.396l-0.546,0.394l-0.547,0.393l-0.548,0.391l-0.55,0.39l-0.551,0.388l-0.552,0.386l-0.553,0.385l-0.554,0.383l-0.556,0.381l-0.557,0.38l-0.558,0.378l-0.559,0.377l-0.561,0.375l-0.561,0.373l-0.563,0.372l-0.564,0.37l-0.565,0.368l-0.566,0.367l-0.568,0.365l-0.569,0.364l-0.569,0.361l-0.571,0.36l-0.573,0.359l-0.573,0.357l-0.574,0.355l-0.576,0.353l-0.577,0.352l-0.578,0.35l-0.579,0.348l-0.58,0.347l-0.581,0.344l-0.582,0.344l-0.584,0.341l-0.584,0.34l-0.586,0.338l-0.587,0.336l-0.588,0.335l-0.589,0.333l-0.59,0.331l-0.592,0.329l-0.592,0.328l-0.593,0.326l-0.595,0.324l-0.596,0.323l-0.596,0.32l-0.598,0.319l-0.599,0.318l-0.6,0.315l-0.601,0.314l-0.602,0.312l-0.603,0.31l-0.604,0.308l-0.606,0.307l-0.606,0.305l-0.607,0.303l-0.609,0.301l-0.609,0.299l-0.61,0.298l-0.612,0.296l-0.612,0.294l-0.614,0.292l-0.614,0.291l-0.616,0.288l-0.617,0.287l-0.617,0.285l-0.619,0.284l-0.619,0.281l-0.621,0.279l-0.622,0.278l-0.622,0.276l-0.624,0.274l-0.624,0.272l-0.626,0.271l-0.627,0.268l-0.627,0.267l-0.629,0.265l-0.629,0.263l-0.63,0.261l-0.632,0.259l-0.632,0.257l-0.633,0.256l-0.635,0.253l-0.635,0.252l-0.636,0.25l-0.637,0.248l-0.638,0.246l-0.639,0.244l-0.64,0.242l-0.641,0.241l-0.642,0.238l-0.642,0.237l-0.644,0.234l-0.645,0.233l-0.645,0.231l-0.646,0.229l-0.648,0.227l-0.648,0.225l-0.649,0.223l-0.65,0.221l-0.651,0.219l-0.651,0.218l-0.653,0.215l-0.653,0.213l-0.655,0.212l-0.655,0.209l-0.656,0.208l-0.657,0.205l-0.658,0.204l-0.659,0.202l-0.659,0.199l-0.66,0.198l-0.662,0.196l-0.662,0.194l-0.663,0.191l-0.664,0.19l-0.664,0.188l-0.666,0.186l-0.666,0.183l-0.667,0.182l-0.668,0.18l-0.669,0.178l-0.669,0.175l-0.671,0.174l-0.671,0.172l-0.672,0.169l-0.672,0.168l-0.674,0.166l-0.674,0.163l-0.676,0.162l-0.676,0.159l-0.676,0.158l-0.678,0.155l-0.678,0.153l-0.679,0.152l-0.68,0.149l-0.681,0.147l-0.681,0.145l-0.682,0.143l-0.683,0.141l-0.684,0.139l-0.684,0.137l-0.685,0.135l-0.686,0.132l-0.687,0.131l-0.687,0.128l-0.688,0.127l-0.689,0.124l-0.689,0.122l-0.691,0.12l-0.691,0.118l-0.691,0.116l-0.693,0.113l-0.693,0.112l-0.694,0.11l-0.694,0.107l-0.695,0.105l-0.696,0.103l-0.697,0.101l-0.697,0.099l-0.698,0.096l-0.699,0.095l-0.699,0.092l-0.7,0.09l-0.701,0.089l-0.701,0.085l-0.702,0.084l-0.703,0.082l-0.703,0.079l-0.704,0.077l-0.705,0.075l-0.705,0.073l-0.706,0.071l-0.706,0.068l-0.708,0.066l-0.707,0.064l-0.709,0.062l-0.709,0.06l-0.71,0.057l-0.71,0.056l-0.711,0.053l-0.711,0.05l-0.713,0.049l-0.712,0.046l-0.714,0.044l-0.714,0.042l-0.714,0.04l-0.715,0.037l-0.716,0.036l-0.716,0.033l-0.717,0.03l-0.718,0.029l-0.718,0.026l-0.718,0.024l-0.719,0.021l-0.72,0.02l-0.721,0.017l-0.72,0.015l-0.722,0.012l-0.722,0.011l-0.722,0.008l-0.723,0.005l-0.724,0.004l-0.724,0.001l-0.724,-0.001l-0.724,-0.004l-0.723,-0.005l-0.722,-0.008l-0.722,-0.011l-0.722,-0.012l-0.72,-0.015l-0.721,-0.017l-0.72,-0.02l-0.719,-0.021l-0.718,-0.024l-0.718,-0.026l-0.718,-0.029l-0.717,-0.03l-0.716,-0.033l-0.716,-0.036l-0.715,-0.037l-0.714,-0.04l-0.714,-0.042l-0.714,-0.044l-0.712,-0.046l-0.713,-0.049l-0.711,-0.05l-0.711,-0.053l-0.71,-0.056l-0.71,-0.057l-0.709,-0.06l-0.709,-0.062l-0.707,-0.064l-0.708,-0.066l-0.706,-0.068l-0.706,-0.071l-0.705,-0.073l-0.705,-0.075l-0.704,-0.077l-0.703,-0.079l-0.703,-0.082l-0.702,-0.084l-0.701,-0.085l-0.701,-0.089l-0.7,-0.09l-0.699,-0.092l-0.699,-0.095l-0.698,-0.096l-0.697,-0.099l-0.697,-0.101l-0.696,-0.103l-0.695,-0.105l-0.694,-0.107l-0.694,-0.11l-0.693,-0.112l-0.693,-0.113l-0.691,-0.116l-0.691,-0.118l-0.691,-0.12l-0.689,-0.122l-0.689,-0.124l-0.688,-0.127l-0.687,-0.128l-0.687,-0.131l-0.686,-0.132l-0.685,-0.135l-0.684,-0.137l-0.684,-0.139l-0.683,-0.141l-0.682,-0.143l-0.681,-0.145l-0.681,-0.147l-0.68,-0.149l-0.679,-0.152l-0.678,-0.153l-0.678,-0.155l-0.676,-0.158l-0.676,-0.159l-0.676,-0.162l-0.674,-0.163l-0.674,-0.166l-0.672,-0.168l-0.672,-0.169l-0.671,-0.172l-0.671,-0.174l-0.669,-0.175l-0.669,-0.178l-0.668,-0.18l-0.667,-0.182l-0.666,-0.183l-0.666,-0.186l-0.664,-0.188l-0.664,-0.19l-0.663,-0.191l-0.662,-0.194l-0.662,-0.196l-0.66,-0.198l-0.659,-0.199l-0.659,-0.202l-0.658,-0.204l-0.657,-0.205l-0.656,-0.208l-0.655,-0.209l-0.655,-0.212l-0.653,-0.213l-0.653,-0.215l-0.651,-0.218l-0.651,-0.219l-0.65,-0.221l-0.649,-0.223l-0.648,-0.225l-0.648,-0.227l-0.646,-0.229l-0.645,-0.231l-0.645,-0.233l-0.644,-0.234l-0.642,-0.237l-0.642,-0.238l-0.641,-0.241l-0.64,-0.242l-0.639,-0.244l-0.638,-0.246l-0.637,-0.248l-0.636,-0.25l-0.635,-0.252l-0.635,-0.253l-0.633,-0.256l-0.632,-0.257l-0.632,-0.259l-0.63,-0.261l-0.629,-0.263l-0.629,-0.265l-0.627,-0.267l-0.627,-0.268l-0.626,-0.271l-0.624,-0.272l-0.624,-0.274l-0.622,-0.276l-0.622,-0.278l-0.621,-0.279l-0.619,-0.281l-0.619,-0.284l-0.617,-0.285l-0.617,-0.287l-0.616,-0.288l-0.614,-0.291l-0.614,-0.292l-0.612,-0.294l-0.612,-0.296l-0.61,-0.298l-0.609,-0.299l-0.609,-0.301l-0.607,-0.303l-0.606,-0.305l-0.606,-0.307l-0.604,-0.308l-0.603,-0.31l-0.602,-0.312l-0.601,-0.314l-0.6,-0.315l-0.599,-0.318l-0.598,-0.319l-0.596,-0.32l-0.596,-0.323l-0.595,-0.324l-0.593,-0.326l-0.592,-0.328l-0.592,-0.329l-0.59,-0.331l-0.589,-0.333l-0.588,-0.335l-0.587,-0.336l-0.586,-0.338l-0.584,-0.34l-0.584,-0.341l-0.582,-0.344l-0.581,-0.344l-0.58,-0.347l-0.579,-0.348l-0.578,-0.35l-0.577,-0.352l-0.576,-0.353l-0.574,-0.355l-0.573,-0.357l-0.573,-0.359l-0.571,-0.36l-0.569,-0.361l-0.569,-0.364l-0.568,-0.365l-0.566,-0.367l-0.565,-0.368l-0.564,-0.37l-0.563,-0.372l-0.561,-0.373l-0.561,-0.375l-0.559,-0.377l-0.558,-0.378l-0.557,-0.38l-0.556,-0.381l-0.554,-0.383l-0.553,-0.385l-0.552,-0.386l-0.551,-0.388l-0.55,-0.39l-0.548,-0.391l-0.547,-0.393l-0.546,-0.394l-0.545,-0.396l-0.543,-0.398l-0.543,-0.399l-0.54,-0.401l-0.54,-0.402l-0.539,-0.404l-0.537,-0.406l-0.536,-0.407l-0.535,-0.408l-0.533,-0.411l-0.532,-0.411l-0.531,-0.414l-0.53,-0.415l-0.528,-0.416l-0.527,-0.418l-0.526,-0.42l-0.524,-0.421l-0.524,-0.422l-0.521,-0.425l-0.521,-0.425l-0.519,-0.427l-0.518,-0.429l-0.517,-0.43l-0.516,-0.432l-0.514,-0.433l-0.512,-0.435l-0.512,-0.437l-0.51,-0.437l-0.509,-0.44l-0.507,-0.441l-0.506,-0.442l-0.505,-0.444l-0.503,-0.445l-0.503,-0.447l-0.5,-0.448l-0.5,-0.45l-0.498,-0.451l-0.496,-0.453l-0.496,-0.454l-0.494,-0.455l-0.492,-0.457l-0.491,-0.459l-0.49,-0.46l-0.489,-0.461l-0.487,-0.463l-0.485,-0.464l-0.485,-0.466l-0.482,-0.467l-0.482,-0.469l-0.48,-0.47l-0.479,-0.471l-0.477,-0.473l-0.476,-0.475l-0.474,-0.475l-0.473,-0.477l-0.472,-0.479l-0.47,-0.48l-0.469,-0.481l-0.467,-0.483l-0.466,-0.484l-0.465,-0.486l-0.463,-0.486l-0.461,-0.489l-0.46,-0.489l-0.459,-0.491l-0.457,-0.493l-0.456,-0.494l-0.454,-0.495l-0.453,-0.496l-0.451,-0.498l-0.45,-0.499l-0.448,-0.501l-0.447,-0.502l-0.446,-0.503l-0.444,-0.505l-0.442,-0.506l-0.441,-0.507l-0.44,-0.509l-0.438,-0.51l-0.436,-0.511l-0.435,-0.512l-0.433,-0.514l-0.432,-0.516l-0.431,-0.516l-0.429,-0.518l-0.427,-0.519l-0.426,-0.521l-0.424,-0.521l-0.423,-0.523l-0.421,-0.525l-0.42,-0.525l-0.418,-0.527l-0.416,-0.528l-0.415,-0.53l-0.414,-0.531l-0.412,-0.532l-0.41,-0.533l-0.409,-0.534l-0.407,-0.536l-0.406,-0.537l-0.404,-0.539l-0.402,-0.539l-0.401,-0.541l-0.399,-0.542l-0.398,-0.543l-0.396,-0.545l-0.395,-0.545l-0.393,-0.547l-0.391,-0.549l-0.39,-0.549l-0.388,-0.551l-0.386,-0.552l-0.385,-0.553l-0.384,-0.554l-0.381,-0.555l-0.38,-0.557l-0.378,-0.558l-0.377,-0.559l-0.375,-0.56l-0.374,-0.562l-0.372,-0.562l-0.37,-0.564l-0.368,-0.565l-0.367,-0.566l-0.365,-0.568l-0.364,-0.568l-0.362,-0.57l-0.36,-0.57l-0.358,-0.572l-0.357,-0.574l-0.355,-0.574l-0.354,-0.575l-0.352,-0.577l-0.35,-0.577l-0.348,-0.579l-0.347,-0.58l-0.345,-0.581l-0.343,-0.583l-0.342,-0.583l-0.339,-0.584l-0.339,-0.586l-0.336,-0.587l-0.335,-0.587l-0.333,-0.589l-0.331,-0.59l-0.33,-0.591l-0.327,-0.593l-0.326,-0.593l-0.325,-0.594l-0.322,-0.596l-0.321,-0.596l-0.319,-0.598l-0.318,-0.598l-0.315,-0.6l-0.314,-0.601l-0.312,-0.602l-0.31,-0.603l-0.309,-0.604l-0.306,-0.605l-0.305,-0.606l-0.303,-0.607l-0.302,-0.608l-0.299,-0.609l-0.298,-0.611l-0.296,-0.611l-0.294,-0.612l-0.293,-0.614l-0.29,-0.614l-0.289,-0.615l-0.287,-0.617l-0.285,-0.617l-0.283,-0.619l-0.282,-0.619l-0.279,-0.62l-0.278,-0.622l-0.276,-0.622l-0.274,-0.624l-0.273,-0.624l-0.27,-0.625l-0.269,-0.627l-0.266,-0.627l-0.265,-0.628l-0.263,-0.63l-0.261,-0.63l-0.26,-0.631l-0.257,-0.632l-0.256,-0.633l-0.253,-0.634l-0.252,-0.635l-0.25,-0.636l-0.248,-0.637l-0.246,-0.638l-0.244,-0.639l-0.243,-0.64l-0.24,-0.64l-0.239,-0.642l-0.236,-0.642l-0.235,-0.644l-0.233,-0.644l-0.231,-0.645l-0.229,-0.646l-0.227,-0.647l-0.225,-0.648l-0.223,-0.649l-0.221,-0.65l-0.22,-0.651l-0.217,-0.651l-0.216,-0.653l-0.213,-0.653l-0.212,-0.654l-0.209,-0.655l-0.208,-0.656l-0.205,-0.657l-0.204,-0.657l-0.202,-0.659l-0.199,-0.659l-0.198,-0.66l-0.196,-0.661l-0.194,-0.662l-0.192,-0.663l-0.189,-0.664l-0.188,-0.664l-0.186,-0.665l-0.184,-0.666l-0.182,-0.667l-0.179,-0.668l-0.178,-0.668l-0.176,-0.67l-0.174,-0.67l-0.172,-0.671l-0.169,-0.672l-0.168,-0.672l-0.166,-0.674l-0.163,-0.674l-0.162,-0.675l-0.159,-0.675l-0.158,-0.677l-0.155,-0.677l-0.154,-0.678l-0.151,-0.679l-0.149,-0.68l-0.147,-0.68l-0.146,-0.681l-0.143,-0.682l-0.141,-0.683l-0.139,-0.683l-0.136,-0.684l-0.135,-0.685l-0.133,-0.686l-0.131,-0.686l-0.128,-0.688l-0.126,-0.687l-0.125,-0.689l-0.122,-0.689l-0.12,-0.69l-0.118,-0.691l-0.116,-0.692l-0.114,-0.692l-0.111,-0.693l-0.11,-0.693l-0.107,-0.695l-0.105,-0.695l-0.103,-0.695l-0.101,-0.697l-0.099,-0.697l-0.097,-0.697l-0.094,-0.699l-0.093,-0.699l-0.09,-0.7l-0.088,-0.7l-0.086,-0.701l-0.084,-0.702l-0.081,-0.703l-0.08,-0.703l-0.077,-0.703l-0.075,-0.705l-0.073,-0.705l-0.07,-0.706l-0.069,-0.706l-0.066,-0.707l-0.064,-0.707l-0.062,-0.709l-0.06,-0.709l-0.057,-0.709l-0.055,-0.71l-0.053,-0.711l-0.051,-0.711l-0.049,-0.712l-0.046,-0.713l-0.044,-0.713l-0.042,-0.713l-0.04,-0.715l-0.037,-0.715l-0.035,-0.715l-0.033,-0.716l-0.031,-0.717l-0.029,-0.717l-0.026,-0.718l-0.024,-0.718l-0.021,-0.719l-0.02,-0.72l-0.017,-0.72l-0.015,-0.72l-0.012,-0.722l-0.011,-0.721l-0.008,-0.723l-0.005,-0.723l-0.004,-0.723l-0.001,-0.724l0.001,-0.724l0.004,-0.723l0.005,-0.723l0.008,-0.722l0.011,-0.722l0.012,-0.721l0.015,-0.721l0.017,-0.72l0.02,-0.719l0.021,-0.719l0.024,-0.719l0.026,-0.717l0.029,-0.718l0.031,-0.716l0.033,-0.716l0.035,-0.716l0.037,-0.715l0.04,-0.714l0.042,-0.714l0.044,-0.713l0.046,-0.712l0.049,-0.712l0.051,-0.712l0.053,-0.71l0.055,-0.711l0.057,-0.709l0.06,-0.709l0.062,-0.708l0.064,-0.708l0.066,-0.707l0.069,-0.706l0.07,-0.706l0.073,-0.705l0.075,-0.704l0.077,-0.704l0.08,-0.703l0.081,-0.702l0.084,-0.702l0.086,-0.701l0.088,-0.701l0.09,-0.699l0.093,-0.7l0.094,-0.698l0.097,-0.698l0.099,-0.697l0.101,-0.696l0.103,-0.696l0.105,-0.695l0.107,-0.694l0.11,-0.694l0.111,-0.693l0.114,-0.692l0.116,-0.691l0.118,-0.691l0.12,-0.69l0.122,-0.689l0.125,-0.689l0.126,-0.688l0.128,-0.687l0.131,-0.686l0.133,-0.686l0.135,-0.685l0.136,-0.684l0.139,-0.684l0.141,-0.682l0.143,-0.682l0.146,-0.681l0.147,-0.681l0.149,-0.679l0.151,-0.679l0.154,-0.678l0.155,-0.678l0.158,-0.676l0.159,-0.676l0.162,-0.675l0.163,-0.674l0.166,-0.673l0.168,-0.673l0.169,-0.672l0.172,-0.671l0.174,-0.67l0.176,-0.669l0.178,-0.669l0.179,-0.667l0.182,-0.667l0.184,-0.666l0.186,-0.666l0.188,-0.664l0.189,-0.664l0.192,-0.662l0.194,-0.662l0.196,-0.661l0.198,-0.66l0.199,-0.66l0.202,-0.658l0.204,-0.658l0.205,-0.657l0.208,-0.656l0.209,-0.655l0.212,-0.654l0.213,-0.653l0.216,-0.652l0.217,-0.652l0.22,-0.651l0.221,-0.649l0.223,-0.649l0.225,-0.648l0.227,-0.647l0.229,-0.646l0.231,-0.645l0.233,-0.645l0.235,-0.643l0.236,-0.643l0.239,-0.641l0.24,-0.641l0.243,-0.64l0.244,-0.638l0.246,-0.638l0.248,-0.637l0.25,-0.636l0.252,-0.635l0.253,-0.634l0.256,-0.633l0.257,-0.632l0.26,-0.632l0.261,-0.63l0.263,-0.629l0.265,-0.628l0.266,-0.628l0.269,-0.626l0.27,-0.625l0.273,-0.625l0.274,-0.623l0.276,-0.623l0.278,-0.621l0.279,-0.62l0.282,-0.62l0.283,-0.618l0.285,-0.618l0.287,-0.616l0.289,-0.615l0.29,-0.615l0.293,-0.613l0.294,-0.612l0.296,-0.612l0.298,-0.61l0.299,-0.609l0.302,-0.608l0.303,-0.608l0.305,-0.606l0.306,-0.605l0.309,-0.604l0.31,-0.603l0.312,-0.601l0.314,-0.601l0.315,-0.6l0.318,-0.599l0.319,-0.597l0.321,-0.597l0.322,-0.595l0.325,-0.595l0.326,-0.593l0.327,-0.592l0.33,-0.591l0.331,-0.59l0.333,-0.589l0.335,-0.588l0.336,-0.587l0.339,-0.585l0.339,-0.585l0.342,-0.583l0.343,-0.582l0.345,-0.581l0.347,-0.58l0.348,-0.579l0.35,-0.578l0.352,-0.576l0.354,-0.576l0.355,-0.574l0.357,-0.573l0.358,-0.572l0.36,-0.571l0.362,-0.569l0.364,-0.569l0.365,-0.567l0.367,-0.566l0.368,-0.565l0.37,-0.564l0.372,-0.563l0.374,-0.561l0.375,-0.561l0.377,-0.559l0.378,-0.557l0.38,-0.557l0.381,-0.556l0.384,-0.554l0.385,-0.553l0.386,-0.552l0.388,-0.55l0.39,-0.55l0.391,-0.548l0.393,-0.547l0.395,-0.546l0.396,-0.544l0.398,-0.544l0.399,-0.542l0.401,-0.54l0.402,-0.54l0.404,-0.538l0.406,-0.537l0.407,-0.536l0.409,-0.535l0.41,-0.533l0.412,-0.532l0.414,-0.531l0.415,-0.529l0.416,-0.528l0.418,-0.527l0.42,-0.526l0.421,-0.524l0.423,-0.523l0.424,-0.522l0.426,-0.52l0.427,-0.519l0.429,-0.518l0.431,-0.517l0.432,-0.515l0.433,-0.514l0.435,-0.513l0.436,-0.511l0.438,-0.51l0.44,-0.508l0.441,-0.508l0.442,-0.506l0.444,-0.504l0.446,-0.504l0.447,-0.502l0.448,-0.5l0.45,-0.499l0.451,-0.498l0.453,-0.497l0.454,-0.495l0.456,-0.494l0.457,-0.492l0.459,-0.491l0.46,-0.49l0.461,-0.488l0.463,-0.487l0.465,-0.485l0.466,-0.485l0.467,-0.482l0.469,-0.482l0.47,-0.48l0.472,-0.478l0.473,-0.477l0.474,-0.476l0.476,-0.474l0.477,-0.473l0.479,-0.472l0.48,-0.47l0.482,-0.468l0.482,-0.467l0.485,-0.466l0.485,-0.464l0.487,-0.463l0.489,-0.462l0.49,-0.46l0.491,-0.458l0.492,-0.457l0.494,-0.456l0.496,-0.454l0.496,-0.453l0.498,-0.451l0.5,-0.45l0.5,-0.448l0.503,-0.447l0.503,-0.445l0.505,-0.444l0.506,-0.442l0.507,-0.441l0.509,-0.439l0.51,-0.438l0.512,-0.436l0.512,-0.435l0.514,-0.433l0.516,-0.432l0.517,-0.43l0.518,-0.429l0.519,-0.427l0.521,-0.426l0.521,-0.424l0.524,-0.423l0.524,-0.421l0.526,-0.419l0.527,-0.418l0.528,-0.417l0.53,-0.415l0.531,-0.413l0.532,-0.412l0.533,-0.41l0.535,-0.409l0.536,-0.407l0.537,-0.405l0.539,-0.404l0.54,-0.403l0.54,-0.4l0.543,-0.4l0.543,-0.397l0.545,-0.396l0.546,-0.395l0.547,-0.392l0.548,-0.392l0.55,-0.389l0.551,-0.388l0.552,-0.387l0.553,-0.384l0.554,-0.383l0.556,-0.382l0.557,-0.38l0.558,-0.378l0.559,-0.377l0.561,-0.375l0.561,-0.373l0.563,-0.372l0.564,-0.37l0.565,-0.368l0.566,-0.367l0.568,-0.365l0.569,-0.363l0.569,-0.362l0.571,-0.36l0.573,-0.358l0.573,-0.357l0.574,-0.355l0.576,-0.354l0.577,-0.351l0.578,-0.35l0.579,-0.348l0.58,-0.347l0.581,-0.345l0.582,-0.343l0.584,-0.342l0.584,-0.339l0.586,-0.338l0.587,-0.337l0.588,-0.334l0.589,-0.333l0.59,-0.331l0.592,-0.33l0.592,-0.328l0.593,-0.326l0.595,-0.324l0.596,-0.322l0.596,-0.321l0.598,-0.319l0.599,-0.317l0.6,-0.316l0.601,-0.313l0.602,-0.312l0.603,-0.31l0.604,-0.309l0.606,-0.306l0.606,-0.305l0.607,-0.303l0.609,-0.301l0.609,-0.3l0.61,-0.298l0.612,-0.295l0.612,-0.295l0.614,-0.292l0.614,-0.29l0.616,-0.289l0.617,-0.287l0.617,-0.285l0.619,-0.283l0.619,-0.281l0.621,-0.28l0.622,-0.278l0.622,-0.276l0.624,-0.274l0.624,-0.272l0.626,-0.27l0.627,-0.269l0.627,-0.266l0.629,-0.265l0.629,-0.263l0.63,-0.261l0.632,-0.259l0.632,-0.258l0.633,-0.255l0.635,-0.254l0.635,-0.252l0.636,-0.249l0.637,-0.248l0.638,-0.246l0.639,-0.245l0.64,-0.242l0.641,-0.24l0.642,-0.239l0.642,-0.236l0.644,-0.235l0.645,-0.233l0.645,-0.23l0.646,-0.229l0.648,-0.227l0.648,-0.225l0.649,-0.223l0.65,-0.222l0.651,-0.219l0.651,-0.217l0.653,-0.216l0.653,-0.213l0.655,-0.211l0.655,-0.21l0.656,-0.207l0.657,-0.206l0.658,-0.204l0.659,-0.201l0.659,-0.2l0.66,-0.198l0.662,-0.195l0.662,-0.194l0.663,-0.192l0.664,-0.19l0.664,-0.187l0.666,-0.186l0.666,-0.184l0.667,-0.182l0.668,-0.179l0.669,-0.178l0.669,-0.176l0.671,-0.173l0.671,-0.172l0.672,-0.17l0.672,-0.167l0.674,-0.166l0.674,-0.164l0.676,-0.161l0.676,-0.16l0.676,-0.157l0.678,-0.156l0.678,-0.153l0.679,-0.151l0.68,-0.149l0.681,-0.148l0.681,-0.145l0.682,-0.143l0.683,-0.141l0.684,-0.139l0.684,-0.136l0.685,-0.135l0.686,-0.133l0.687,-0.13l0.687,-0.129l0.688,-0.126l0.689,-0.124l0.689,-0.122l0.691,-0.121l0.691,-0.117l0.691,-0.116l0.693,-0.114l0.693,-0.112l0.694,-0.109l0.694,-0.107l0.695,-0.106l0.696,-0.103l0.697,-0.101l0.697,-0.098l0.698,-0.097l0.699,-0.094l0.699,-0.093l0.7,-0.09l0.701,-0.088l0.701,-0.086l0.702,-0.084l0.703,-0.081l0.703,-0.079l0.704,-0.078l0.705,-0.075l0.705,-0.072l0.706,-0.071l0.706,-0.069l0.708,-0.066l0.707,-0.064l0.709,-0.062l0.709,-0.059l0.71,-0.058l0.71,-0.055l0.711,-0.053l0.711,-0.051l0.713,-0.048l0.712,-0.047l0.714,-0.044l0.714,-0.042l0.714,-0.039l0.715,-0.038l0.716,-0.035l0.716,-0.033l0.717,-0.031l0.718,-0.028l0.718,-0.026l0.718,-0.024l0.719,-0.022l0.72,-0.019l0.721,-0.017l0.72,-0.015l0.722,-0.013l0.722,-0.01l0.722,-0.008l0.723,-0.006l0.724,-0.003l0.724,-0.002l0.724,0.002Zm-1.397,16l-0.673,0.003l-0.673,0.005l-0.671,0.008l-0.672,0.009l-0.67,0.012l-0.67,0.014l-0.67,0.016l-0.669,0.018l-0.669,0.02l-0.668,0.022l-0.667,0.024l-0.667,0.027l-0.666,0.028l-0.666,0.031l-0.665,0.033l-0.664,0.034l-0.664,0.037l-0.664,0.039l-0.663,0.041l-0.662,0.043l-0.661,0.045l-0.661,0.048l-0.661,0.049l-0.66,0.051l-0.659,0.053l-0.659,0.056l-0.658,0.057l-0.657,0.06l-0.657,0.061l-0.656,0.064l-0.656,0.066l-0.655,0.067l-0.654,0.07l-0.654,0.071l-0.653,0.074l-0.653,0.076l-0.652,0.078l-0.651,0.079l-0.65,0.082l-0.65,0.084l-0.65,0.086l-0.648,0.087l-0.648,0.09l-0.648,0.092l-0.647,0.093l-0.646,0.096l-0.645,0.098l-0.645,0.099l-0.644,0.102l-0.643,0.104l-0.643,0.105l-0.642,0.108l-0.642,0.109l-0.64,0.112l-0.64,0.113l-0.64,0.115l-0.638,0.118l-0.638,0.119l-0.638,0.121l-0.636,0.123l-0.636,0.125l-0.636,0.127l-0.634,0.129l-0.634,0.131l-0.633,0.133l-0.632,0.134l-0.632,0.137l-0.631,0.138l-0.63,0.141l-0.63,0.142l-0.628,0.144l-0.628,0.146l-0.628,0.148l-0.626,0.15l-0.626,0.152l-0.625,0.154l-0.625,0.155l-0.623,0.158l-0.623,0.159l-0.622,0.161l-0.622,0.163l-0.62,0.165l-0.62,0.167l-0.619,0.169l-0.618,0.17l-0.618,0.173l-0.617,0.174l-0.616,0.176l-0.615,0.178l-0.614,0.18l-0.614,0.181l-0.613,0.184l-0.612,0.185l-0.611,0.187l-0.611,0.189l-0.609,0.191l-0.609,0.193l-0.608,0.194l-0.607,0.196l-0.607,0.198l-0.605,0.2l-0.605,0.202l-0.604,0.203l-0.603,0.206l-0.602,0.207l-0.602,0.208l-0.601,0.211l-0.6,0.213l-0.598,0.214l-0.599,0.216l-0.597,0.217l-0.596,0.22l-0.596,0.221l-0.595,0.223l-0.594,0.225l-0.593,0.227l-0.592,0.228l-0.591,0.23l-0.59,0.232l-0.59,0.234l-0.589,0.235l-0.587,0.237l-0.587,0.239l-0.586,0.241l-0.585,0.242l-0.585,0.244l-0.583,0.246l-0.582,0.247l-0.582,0.25l-0.581,0.251l-0.579,0.252l-0.579,0.255l-0.578,0.256l-0.577,0.257l-0.576,0.26l-0.575,0.261l-0.574,0.263l-0.574,0.264l-0.572,0.267l-0.571,0.268l-0.571,0.269l-0.57,0.272l-0.568,0.273l-0.568,0.274l-0.566,0.277l-0.566,0.278l-0.565,0.279l-0.564,0.282l-0.563,0.283l-0.561,0.284l-0.561,0.287l-0.56,0.288l-0.559,0.289l-0.558,0.291l-0.557,0.293l-0.556,0.295l-0.555,0.296l-0.554,0.298l-0.553,0.299l-0.552,0.301l-0.551,0.303l-0.55,0.304l-0.549,0.306l-0.548,0.307l-0.547,0.309l-0.546,0.311l-0.545,0.312l-0.544,0.314l-0.543,0.316l-0.542,0.317l-0.54,0.319l-0.54,0.32l-0.539,0.322l-0.538,0.323l-0.536,0.325l-0.536,0.327l-0.534,0.328l-0.534,0.33l-0.532,0.331l-0.531,0.333l-0.531,0.334l-0.529,0.336l-0.528,0.337l-0.527,0.339l-0.526,0.341l-0.525,0.342l-0.524,0.344l-0.522,0.345l-0.522,0.347l-0.521,0.348l-0.519,0.35l-0.518,0.351l-0.517,0.353l-0.516,0.354l-0.516,0.356l-0.513,0.358l-0.513,0.358l-0.512,0.361l-0.51,0.362l-0.51,0.363l-0.508,0.365l-0.507,0.366l-0.506,0.368l-0.505,0.369l-0.503,0.371l-0.503,0.372l-0.501,0.374l-0.5,0.375l-0.499,0.377l-0.498,0.378l-0.497,0.38l-0.495,0.381l-0.495,0.382l-0.493,0.384l-0.492,0.386l-0.491,0.387l-0.489,0.388l-0.489,0.39l-0.487,0.391l-0.486,0.393l-0.485,0.394l-0.484,0.395l-0.482,0.397l-0.481,0.398l-0.48,0.4l-0.479,0.401l-0.478,0.403l-0.476,0.404l-0.475,0.405l-0.474,0.407l-0.473,0.408l-0.471,0.409l-0.47,0.411l-0.469,0.413l-0.468,0.413l-0.467,0.415l-0.465,0.417l-0.464,0.418l-0.463,0.419l-0.461,0.42l-0.46,0.422l-0.459,0.424l-0.458,0.424l-0.456,0.426l-0.455,0.428l-0.454,0.428l-0.452,0.43l-0.452,0.432l-0.45,0.432l-0.448,0.434l-0.448,0.436l-0.446,0.437l-0.444,0.438l-0.444,0.439l-0.442,0.441l-0.441,0.442l-0.439,0.443l-0.438,0.444l-0.437,0.446l-0.436,0.448l-0.434,0.448l-0.433,0.45l-0.431,0.451l-0.43,0.452l-0.429,0.454l-0.428,0.455l-0.426,0.456l-0.425,0.458l-0.423,0.458l-0.422,0.46l-0.421,0.462l-0.419,0.462l-0.418,0.464l-0.417,0.465l-0.415,0.466l-0.414,0.468l-0.412,0.469l-0.411,0.47l-0.41,0.471l-0.408,0.473l-0.407,0.473l-0.405,0.475l-0.404,0.477l-0.403,0.477l-0.401,0.479l-0.4,0.48l-0.399,0.481l-0.397,0.482l-0.395,0.483l-0.394,0.485l-0.393,0.486l-0.391,0.487l-0.39,0.488l-0.389,0.49l-0.387,0.49l-0.385,0.492l-0.384,0.493l-0.383,0.495l-0.381,0.495l-0.38,0.496l-0.378,0.498l-0.377,0.499l-0.375,0.5l-0.374,0.501l-0.372,0.503l-0.371,0.503l-0.37,0.505l-0.368,0.505l-0.366,0.507l-0.365,0.508l-0.364,0.51l-0.362,0.51l-0.36,0.511l-0.359,0.513l-0.358,0.514l-0.355,0.514l-0.355,0.516l-0.353,0.517l-0.351,0.518l-0.35,0.52l-0.348,0.52l-0.347,0.521l-0.346,0.523l-0.343,0.524l-0.343,0.524l-0.34,0.526l-0.339,0.527l-0.338,0.528l-0.336,0.529l-0.335,0.53l-0.332,0.531l-0.332,0.532l-0.33,0.534l-0.328,0.534l-0.327,0.535l-0.325,0.537l-0.323,0.537l-0.322,0.539l-0.32,0.539l-0.319,0.541l-0.317,0.542l-0.316,0.542l-0.314,0.544l-0.312,0.545l-0.311,0.545l-0.309,0.547l-0.308,0.548l-0.306,0.549l-0.304,0.55l-0.303,0.55l-0.301,0.552l-0.299,0.553l-0.298,0.554l-0.297,0.555l-0.294,0.556l-0.293,0.556l-0.291,0.558l-0.29,0.559l-0.288,0.56l-0.286,0.56l-0.285,0.562l-0.283,0.563l-0.282,0.563l-0.279,0.565l-0.278,0.565l-0.277,0.567l-0.275,0.567l-0.273,0.569l-0.271,0.569l-0.27,0.57l-0.268,0.571l-0.266,0.572l-0.265,0.574l-0.263,0.574l-0.261,0.575l-0.26,0.575l-0.257,0.577l-0.256,0.578l-0.255,0.578l-0.253,0.58l-0.251,0.58l-0.249,0.582l-0.248,0.582l-0.245,0.583l-0.244,0.584l-0.243,0.585l-0.241,0.586l-0.238,0.586l-0.238,0.588l-0.235,0.588l-0.234,0.59l-0.232,0.59l-0.23,0.591l-0.228,0.592l-0.227,0.593l-0.225,0.593l-0.223,0.595l-0.221,0.595l-0.22,0.596l-0.218,0.598l-0.216,0.598l-0.214,0.598l-0.212,0.6l-0.211,0.6l-0.209,0.602l-0.207,0.602l-0.205,0.603l-0.204,0.603l-0.202,0.605l-0.2,0.605l-0.198,0.606l-0.196,0.608l-0.194,0.607l-0.193,0.609l-0.191,0.609l-0.189,0.611l-0.187,0.611l-0.185,0.611l-0.184,0.613l-0.182,0.613l-0.179,0.615l-0.178,0.615l-0.176,0.615l-0.175,0.617l-0.172,0.617l-0.171,0.618l-0.168,0.619l-0.167,0.62l-0.165,0.62l-0.163,0.621l-0.162,0.622l-0.159,0.623l-0.158,0.623l-0.155,0.624l-0.154,0.625l-0.152,0.626l-0.15,0.626l-0.148,0.627l-0.146,0.628l-0.144,0.628l-0.142,0.63l-0.141,0.63l-0.138,0.63l-0.137,0.632l-0.135,0.632l-0.133,0.633l-0.13,0.633l-0.129,0.635l-0.127,0.635l-0.125,0.635l-0.124,0.637l-0.121,0.637l-0.119,0.637l-0.117,0.639l-0.116,0.639l-0.113,0.64l-0.112,0.64l-0.109,0.641l-0.108,0.642l-0.105,0.643l-0.104,0.643l-0.101,0.644l-0.1,0.644l-0.098,0.646l-0.096,0.645l-0.093,0.647l-0.092,0.647l-0.09,0.648l-0.087,0.648l-0.086,0.649l-0.084,0.65l-0.082,0.65l-0.08,0.651l-0.077,0.652l-0.076,0.652l-0.074,0.653l-0.071,0.654l-0.07,0.654l-0.068,0.655l-0.065,0.655l-0.064,0.656l-0.061,0.656l-0.06,0.658l-0.057,0.657l-0.056,0.659l-0.053,0.659l-0.052,0.659l-0.049,0.661l-0.047,0.66l-0.045,0.662l-0.043,0.662l-0.041,0.662l-0.039,0.664l-0.037,0.663l-0.035,0.665l-0.033,0.664l-0.03,0.666l-0.029,0.666l-0.026,0.666l-0.024,0.667l-0.023,0.668l-0.02,0.668l-0.018,0.669l-0.016,0.67l-0.014,0.669l-0.011,0.671l-0.01,0.671l-0.007,0.671l-0.006,0.673l-0.003,0.672l-0.001,0.673l0.001,0.673l0.003,0.673l0.006,0.672l0.007,0.672l0.01,0.671l0.011,0.67l0.014,0.67l0.016,0.669l0.018,0.669l0.02,0.668l0.023,0.668l0.024,0.667l0.026,0.667l0.029,0.666l0.03,0.665l0.033,0.665l0.035,0.664l0.037,0.664l0.039,0.663l0.041,0.663l0.043,0.662l0.045,0.661l0.047,0.661l0.049,0.66l0.052,0.66l0.053,0.659l0.056,0.658l0.057,0.658l0.06,0.657l0.061,0.657l0.064,0.656l0.065,0.655l0.068,0.655l0.07,0.654l0.071,0.653l0.074,0.653l0.076,0.653l0.077,0.651l0.08,0.651l0.082,0.651l0.084,0.649l0.086,0.649l0.087,0.649l0.09,0.647l0.092,0.648l0.093,0.646l0.096,0.646l0.098,0.645l0.1,0.645l0.101,0.644l0.104,0.643l0.105,0.642l0.108,0.642l0.109,0.641l0.112,0.641l0.113,0.64l0.116,0.639l0.117,0.638l0.119,0.638l0.121,0.637l0.124,0.636l0.125,0.636l0.127,0.635l0.129,0.634l0.13,0.634l0.133,0.633l0.135,0.632l0.137,0.631l0.138,0.631l0.141,0.63l0.142,0.629l0.144,0.629l0.146,0.627l0.148,0.628l0.15,0.626l0.152,0.625l0.154,0.625l0.155,0.624l0.158,0.624l0.159,0.622l0.162,0.622l0.163,0.622l0.165,0.62l0.167,0.619l0.168,0.619l0.171,0.618l0.172,0.618l0.175,0.616l0.176,0.616l0.178,0.615l0.179,0.614l0.182,0.613l0.184,0.613l0.185,0.612l0.187,0.611l0.189,0.61l0.191,0.61l0.193,0.608l0.194,0.608l0.196,0.607l0.198,0.606l0.2,0.606l0.202,0.604l0.204,0.604l0.205,0.603l0.207,0.602l0.209,0.601l0.211,0.601l0.212,0.599l0.214,0.599l0.216,0.598l0.218,0.597l0.22,0.596l0.221,0.596l0.223,0.594l0.225,0.594l0.227,0.593l0.228,0.591l0.23,0.592l0.232,0.59l0.234,0.589l0.235,0.588l0.238,0.588l0.238,0.587l0.241,0.586l0.242,0.584l0.245,0.584l0.245,0.584l0.248,0.582l0.249,0.581l0.251,0.581l0.253,0.579l0.254,0.579l0.257,0.577l0.257,0.577l0.26,0.576l0.261,0.575l0.263,0.574l0.265,0.573l0.266,0.572l0.268,0.571l0.27,0.571l0.271,0.569l0.273,0.568l0.275,0.568l0.277,0.566l0.278,0.566l0.279,0.564l0.282,0.564l0.283,0.563l0.285,0.561l0.286,0.561l0.288,0.56l0.29,0.558l0.291,0.558l0.293,0.557l0.294,0.556l0.297,0.555l0.298,0.553l0.299,0.553l0.301,0.552l0.303,0.551l0.304,0.55l0.306,0.549l0.308,0.547l0.309,0.547l0.311,0.546l0.312,0.545l0.314,0.543l0.316,0.543l0.317,0.542l0.319,0.54l0.32,0.54l0.322,0.538l0.323,0.538l0.326,0.536l0.326,0.536l0.328,0.534l0.33,0.533l0.332,0.533l0.333,0.531l0.334,0.53l0.336,0.529l0.338,0.528l0.339,0.526l0.34,0.526l0.343,0.525l0.343,0.523l0.346,0.523l0.347,0.522l0.348,0.52l0.35,0.519l0.351,0.518l0.353,0.517l0.355,0.516l0.355,0.515l0.358,0.514l0.359,0.512l0.36,0.512l0.362,0.51l0.364,0.509l0.365,0.508l0.366,0.507l0.368,0.506l0.37,0.505l0.371,0.503l0.372,0.502l0.374,0.501l0.375,0.501l0.377,0.498l0.378,0.498l0.38,0.497l0.381,0.495l0.383,0.494l0.384,0.493l0.385,0.492l0.387,0.491l0.389,0.489l0.39,0.488l0.391,0.488l0.392,0.485l0.395,0.485l0.395,0.484l0.397,0.482l0.399,0.481l0.4,0.48l0.401,0.479l0.403,0.477l0.404,0.476l0.405,0.475l0.407,0.474l0.408,0.472l0.41,0.472l0.411,0.47l0.412,0.468l0.414,0.468l0.415,0.466l0.417,0.466l0.418,0.463l0.419,0.463l0.421,0.461l0.422,0.46l0.423,0.459l0.425,0.457l0.426,0.457l0.428,0.455l0.429,0.453l0.43,0.453l0.431,0.451l0.433,0.45l0.434,0.448l0.436,0.447l0.437,0.446l0.438,0.445l0.439,0.443l0.441,0.442l0.442,0.441l0.444,0.439l0.444,0.438l0.446,0.437l0.448,0.435l0.448,0.434l0.45,0.433l0.452,0.431l0.452,0.43l0.454,0.429l0.455,0.427l0.456,0.426l0.458,0.425l0.459,0.423l0.46,0.422l0.461,0.421l0.463,0.419l0.464,0.418l0.465,0.416l0.467,0.415l0.468,0.414l0.469,0.412l0.47,0.411l0.471,0.41l0.473,0.408l0.474,0.407l0.475,0.405l0.476,0.404l0.478,0.402l0.479,0.401l0.48,0.4l0.481,0.399l0.482,0.396l0.484,0.396l0.485,0.394l0.486,0.392l0.487,0.392l0.489,0.39l0.489,0.388l0.491,0.387l0.492,0.385l0.493,0.384l0.495,0.383l0.495,0.381l0.497,0.379l0.498,0.378l0.499,0.377l0.5,0.375l0.501,0.374l0.503,0.372l0.503,0.371l0.505,0.369l0.506,0.368l0.507,0.367l0.508,0.364l0.51,0.364l0.51,0.362l0.512,0.36l0.512,0.359l0.515,0.357l0.515,0.356l0.515,0.354l0.518,0.353l0.518,0.352l0.519,0.349l0.521,0.349l0.522,0.347l0.522,0.345l0.524,0.343l0.525,0.342l0.526,0.341l0.527,0.339l0.528,0.337l0.529,0.336l0.531,0.335l0.531,0.333l0.532,0.331l0.534,0.33l0.534,0.328l0.536,0.326l0.536,0.325l0.538,0.324l0.539,0.322l0.54,0.32l0.54,0.319l0.542,0.317l0.543,0.315l0.544,0.314l0.545,0.312l0.546,0.311l0.547,0.309l0.548,0.308l0.549,0.305l0.55,0.305l0.551,0.302l0.552,0.302l0.553,0.299l0.554,0.298l0.555,0.296l0.556,0.294l0.557,0.293l0.558,0.291l0.559,0.29l0.56,0.288l0.561,0.286l0.562,0.285l0.562,0.283l0.564,0.281l0.565,0.28l0.566,0.278l0.566,0.276l0.568,0.275l0.568,0.273l0.57,0.271l0.571,0.27l0.571,0.268l0.572,0.266l0.574,0.265l0.574,0.262l0.575,0.262l0.576,0.259l0.577,0.258l0.578,0.256l0.579,0.254l0.579,0.253l0.581,0.251l0.581,0.249l0.583,0.248l0.584,0.246l0.583,0.243l0.586,0.243l0.586,0.24l0.587,0.239l0.587,0.237l0.589,0.236l0.59,0.233l0.59,0.232l0.591,0.23l0.593,0.229l0.592,0.226l0.594,0.225l0.595,0.223l0.595,0.221l0.597,0.22l0.598,0.218l0.598,0.216l0.598,0.214l0.6,0.212l0.601,0.211l0.601,0.209l0.603,0.207l0.603,0.205l0.604,0.204l0.605,0.201l0.605,0.2l0.607,0.198l0.607,0.196l0.608,0.195l0.609,0.192l0.609,0.191l0.611,0.189l0.611,0.187l0.612,0.186l0.613,0.183l0.614,0.182l0.614,0.179l0.615,0.178l0.616,0.176l0.617,0.175l0.618,0.172l0.618,0.171l0.619,0.168l0.62,0.167l0.62,0.165l0.622,0.163l0.622,0.161l0.623,0.16l0.623,0.157l0.624,0.156l0.626,0.153l0.626,0.152l0.626,0.15l0.628,0.148l0.628,0.146l0.628,0.144l0.63,0.143l0.63,0.14l0.631,0.139l0.632,0.136l0.632,0.135l0.633,0.133l0.634,0.13l0.635,0.129l0.635,0.127l0.636,0.125l0.636,0.123l0.638,0.122l0.637,0.119l0.639,0.117l0.64,0.116l0.639,0.113l0.641,0.111l0.642,0.11l0.642,0.107l0.643,0.106l0.643,0.103l0.644,0.102l0.645,0.1l0.646,0.097l0.646,0.096l0.646,0.094l0.648,0.092l0.648,0.089l0.648,0.088l0.65,0.086l0.649,0.083l0.651,0.082l0.652,0.08l0.651,0.078l0.653,0.075l0.653,0.074l0.653,0.072l0.655,0.069l0.655,0.068l0.656,0.066l0.656,0.063l0.657,0.062l0.657,0.059l0.659,0.058l0.658,0.055l0.659,0.053l0.66,0.052l0.661,0.049l0.661,0.047l0.661,0.045l0.662,0.043l0.663,0.041l0.663,0.039l0.665,0.037l0.664,0.035l0.665,0.033l0.666,0.03l0.666,0.029l0.667,0.026l0.667,0.025l0.668,0.022l0.669,0.02l0.669,0.018l0.67,0.016l0.67,0.014l0.67,0.011l0.672,0.01l0.672,0.007l0.672,0.006l0.672,0.003l0.674,0.001l0.674,-0.001l0.672,-0.003l0.672,-0.006l0.672,-0.007l0.672,-0.01l0.67,-0.011l0.67,-0.014l0.67,-0.016l0.669,-0.018l0.669,-0.02l0.668,-0.022l0.667,-0.025l0.667,-0.026l0.666,-0.029l0.666,-0.03l0.665,-0.033l0.664,-0.035l0.665,-0.037l0.663,-0.039l0.663,-0.041l0.662,-0.043l0.661,-0.045l0.661,-0.047l0.661,-0.049l0.66,-0.052l0.659,-0.053l0.658,-0.055l0.659,-0.058l0.657,-0.059l0.657,-0.062l0.656,-0.063l0.656,-0.066l0.655,-0.068l0.655,-0.069l0.653,-0.072l0.653,-0.074l0.653,-0.075l0.651,-0.078l0.652,-0.08l0.651,-0.082l0.649,-0.083l0.65,-0.086l0.648,-0.088l0.648,-0.09l0.648,-0.091l0.646,-0.094l0.647,-0.096l0.645,-0.097l0.645,-0.1l0.644,-0.102l0.643,-0.103l0.643,-0.106l0.642,-0.107l0.642,-0.11l0.64,-0.111l0.64,-0.113l0.64,-0.116l0.639,-0.117l0.637,-0.119l0.638,-0.122l0.636,-0.123l0.636,-0.125l0.635,-0.127l0.635,-0.129l0.634,-0.13l0.633,-0.133l0.632,-0.135l0.632,-0.136l0.631,-0.139l0.63,-0.14l0.63,-0.143l0.628,-0.144l0.628,-0.146l0.628,-0.148l0.626,-0.15l0.626,-0.152l0.625,-0.153l0.625,-0.156l0.623,-0.157l0.623,-0.16l0.622,-0.161l0.622,-0.163l0.62,-0.165l0.62,-0.167l0.619,-0.168l0.618,-0.171l0.618,-0.172l0.617,-0.175l0.616,-0.176l0.615,-0.178l0.614,-0.179l0.614,-0.182l0.613,-0.183l0.612,-0.186l0.611,-0.187l0.611,-0.189l0.609,-0.191l0.609,-0.192l0.608,-0.195l0.608,-0.196l0.606,-0.198l0.605,-0.2l0.605,-0.201l0.604,-0.204l0.603,-0.205l0.603,-0.207l0.601,-0.209l0.601,-0.211l0.6,-0.212l0.598,-0.214l0.598,-0.216l0.598,-0.218l0.597,-0.22l0.595,-0.221l0.595,-0.223l0.594,-0.225l0.592,-0.226l0.593,-0.229l0.591,-0.23l0.59,-0.232l0.59,-0.233l0.589,-0.236l0.587,-0.237l0.587,-0.239l0.586,-0.24l0.586,-0.243l0.583,-0.243l0.584,-0.246l0.583,-0.248l0.581,-0.249l0.581,-0.251l0.579,-0.253l0.579,-0.254l0.578,-0.256l0.577,-0.258l0.576,-0.259l0.575,-0.262l0.574,-0.262l0.574,-0.265l0.572,-0.266l0.571,-0.268l0.571,-0.27l0.57,-0.271l0.568,-0.273l0.567,-0.275l0.568,-0.276l0.565,-0.278l0.565,-0.28l0.564,-0.281l0.562,-0.283l0.562,-0.285l0.561,-0.286l0.56,-0.288l0.559,-0.29l0.558,-0.291l0.557,-0.293l0.556,-0.294l0.555,-0.296l0.554,-0.298l0.553,-0.3l0.552,-0.301l0.551,-0.302l0.55,-0.305l0.549,-0.305l0.548,-0.308l0.547,-0.309l0.546,-0.311l0.545,-0.312l0.544,-0.314l0.543,-0.315l0.542,-0.317l0.54,-0.319l0.54,-0.32l0.539,-0.322l0.538,-0.324l0.536,-0.325l0.536,-0.326l0.534,-0.328l0.534,-0.33l0.532,-0.331l0.532,-0.333l0.53,-0.335l0.529,-0.335l0.528,-0.338l0.527,-0.339l0.526,-0.341l0.525,-0.342l0.524,-0.344l0.522,-0.344l0.522,-0.347l0.521,-0.349l0.519,-0.349l0.518,-0.352l0.518,-0.353l0.515,-0.354l0.515,-0.356l0.515,-0.357l0.512,-0.359l0.512,-0.36l0.51,-0.362l0.509,-0.363l0.509,-0.365l0.507,-0.367l0.506,-0.368l0.504,-0.369l0.504,-0.371l0.503,-0.372l0.501,-0.374l0.5,-0.375l0.499,-0.376l0.498,-0.379l0.497,-0.38l0.495,-0.38l0.495,-0.383l0.493,-0.384l0.492,-0.385l0.491,-0.387l0.489,-0.388l0.489,-0.39l0.487,-0.392l0.486,-0.392l0.485,-0.394l0.484,-0.395l0.482,-0.397l0.481,-0.399l0.481,-0.4l0.478,-0.401l0.478,-0.402l0.476,-0.404l0.475,-0.405l0.474,-0.407l0.473,-0.408l0.471,-0.41l0.471,-0.411l0.468,-0.412l0.468,-0.414l0.467,-0.415l0.465,-0.416l0.464,-0.418l0.463,-0.419l0.461,-0.421l0.46,-0.422l0.459,-0.423l0.458,-0.425l0.456,-0.425l0.455,-0.428l0.454,-0.429l0.452,-0.43l0.452,-0.431l0.45,-0.433l0.448,-0.434l0.448,-0.435l0.446,-0.437l0.444,-0.438l0.444,-0.439l0.442,-0.441l0.441,-0.442l0.439,-0.444l0.438,-0.444l0.437,-0.446l0.436,-0.447l0.434,-0.448l0.433,-0.45l0.431,-0.451l0.43,-0.453l0.429,-0.453l0.428,-0.455l0.426,-0.456l0.425,-0.458l0.423,-0.459l0.422,-0.46l0.421,-0.461l0.419,-0.463l0.418,-0.463l0.417,-0.466l0.415,-0.466l0.414,-0.468l0.412,-0.468l0.411,-0.47l0.41,-0.472l0.408,-0.472l0.407,-0.474l0.405,-0.475l0.404,-0.476l0.403,-0.477l0.402,-0.479l0.399,-0.48l0.399,-0.481l0.397,-0.482l0.395,-0.484l0.395,-0.485l0.392,-0.485l0.391,-0.488l0.39,-0.488l0.389,-0.489l0.387,-0.491l0.385,-0.492l0.384,-0.493l0.383,-0.494l0.381,-0.495l0.38,-0.497l0.378,-0.498l0.377,-0.498l0.375,-0.5l0.374,-0.502l0.372,-0.502l0.371,-0.503l0.37,-0.505l0.368,-0.506l0.366,-0.507l0.365,-0.508l0.364,-0.509l0.361,-0.51l0.361,-0.512l0.359,-0.513l0.357,-0.513l0.356,-0.515l0.355,-0.516l0.353,-0.517l0.351,-0.518l0.35,-0.519l0.348,-0.52l0.347,-0.522l0.346,-0.523l0.343,-0.523l0.343,-0.525l0.34,-0.526l0.34,-0.526l0.337,-0.528l0.336,-0.529l0.334,-0.53l0.333,-0.531l0.332,-0.533l0.33,-0.533l0.328,-0.534l0.327,-0.536l0.325,-0.536l0.323,-0.538l0.322,-0.538l0.32,-0.54l0.319,-0.54l0.317,-0.542l0.316,-0.543l0.314,-0.544l0.312,-0.544l0.311,-0.546l0.309,-0.547l0.308,-0.547l0.306,-0.549l0.304,-0.55l0.303,-0.551l0.301,-0.552l0.299,-0.553l0.298,-0.553l0.297,-0.555l0.294,-0.556l0.293,-0.557l0.291,-0.558l0.29,-0.558l0.288,-0.56l0.287,-0.561l0.284,-0.561l0.283,-0.563l0.282,-0.564l0.279,-0.564l0.279,-0.566l0.276,-0.566l0.275,-0.568l0.273,-0.568l0.271,-0.569l0.27,-0.571l0.268,-0.571l0.266,-0.572l0.265,-0.573l0.263,-0.574l0.261,-0.575l0.259,-0.576l0.258,-0.576l0.257,-0.578l0.254,-0.579l0.253,-0.579l0.251,-0.581l0.249,-0.581l0.247,-0.582l0.246,-0.584l0.245,-0.584l0.242,-0.585l0.241,-0.585l0.238,-0.587l0.238,-0.588l0.235,-0.588l0.234,-0.589l0.232,-0.59l0.23,-0.592l0.228,-0.592l0.227,-0.592l0.225,-0.594l0.223,-0.594l0.221,-0.596l0.22,-0.596l0.218,-0.597l0.216,-0.598l0.214,-0.599l0.213,-0.6l0.21,-0.6l0.209,-0.601l0.207,-0.602l0.206,-0.603l0.203,-0.604l0.202,-0.604l0.2,-0.606l0.198,-0.606l0.196,-0.607l0.194,-0.608l0.193,-0.608l0.191,-0.61l0.189,-0.61l0.187,-0.611l0.185,-0.612l0.184,-0.613l0.182,-0.613l0.179,-0.614l0.178,-0.615l0.177,-0.616l0.174,-0.617l0.172,-0.617l0.171,-0.618l0.169,-0.619l0.166,-0.619l0.165,-0.62l0.163,-0.622l0.162,-0.621l0.159,-0.623l0.158,-0.623l0.155,-0.625l0.154,-0.625l0.152,-0.625l0.15,-0.627l0.148,-0.627l0.146,-0.627l0.144,-0.629l0.143,-0.629l0.14,-0.63l0.138,-0.631l0.137,-0.631l0.135,-0.633l0.133,-0.632l0.13,-0.634l0.129,-0.634l0.127,-0.635l0.125,-0.636l0.124,-0.636l0.121,-0.637l0.119,-0.638l0.117,-0.638l0.116,-0.639l0.113,-0.64l0.112,-0.641l0.109,-0.641l0.108,-0.642l0.105,-0.642l0.104,-0.643l0.101,-0.644l0.1,-0.645l0.098,-0.645l0.095,-0.646l0.094,-0.646l0.092,-0.648l0.09,-0.647l0.087,-0.649l0.086,-0.649l0.084,-0.65l0.082,-0.65l0.08,-0.651l0.077,-0.651l0.076,-0.653l0.074,-0.653l0.071,-0.653l0.07,-0.654l0.068,-0.655l0.065,-0.656l0.064,-0.655l0.061,-0.657l0.06,-0.657l0.057,-0.658l0.056,-0.658l0.053,-0.659l0.052,-0.66l0.049,-0.66l0.047,-0.661l0.045,-0.661l0.043,-0.662l0.041,-0.663l0.039,-0.663l0.037,-0.663l0.035,-0.665l0.033,-0.665l0.03,-0.665l0.029,-0.666l0.026,-0.667l0.025,-0.667l0.022,-0.668l0.02,-0.668l0.018,-0.669l0.016,-0.669l0.014,-0.67l0.011,-0.67l0.01,-0.672l0.007,-0.671l0.006,-0.672l0.003,-0.672l0.001,-0.674l-0.001,-0.673l-0.003,-0.673l-0.006,-0.671l-0.007,-0.672l-0.01,-0.671l-0.011,-0.671l-0.014,-0.67l-0.016,-0.669l-0.018,-0.669l-0.02,-0.668l-0.022,-0.667l-0.025,-0.667l-0.026,-0.667l-0.029,-0.666l-0.03,-0.666l-0.033,-0.664l-0.035,-0.665l-0.037,-0.663l-0.039,-0.664l-0.041,-0.662l-0.043,-0.662l-0.045,-0.662l-0.047,-0.66l-0.049,-0.661l-0.052,-0.659l-0.053,-0.659l-0.056,-0.658l-0.057,-0.658l-0.06,-0.658l-0.061,-0.656l-0.064,-0.656l-0.065,-0.656l-0.068,-0.654l-0.07,-0.654l-0.071,-0.654l-0.074,-0.653l-0.076,-0.652l-0.077,-0.652l-0.08,-0.651l-0.082,-0.65l-0.084,-0.65l-0.086,-0.649l-0.087,-0.648l-0.09,-0.648l-0.092,-0.647l-0.094,-0.647l-0.095,-0.645l-0.098,-0.645l-0.1,-0.645l-0.101,-0.644l-0.104,-0.643l-0.105,-0.643l-0.108,-0.642l-0.109,-0.641l-0.112,-0.64l-0.113,-0.64l-0.116,-0.639l-0.117,-0.639l-0.119,-0.638l-0.121,-0.636l-0.124,-0.637l-0.125,-0.636l-0.127,-0.634l-0.129,-0.635l-0.13,-0.633l-0.133,-0.633l-0.135,-0.632l-0.137,-0.632l-0.138,-0.631l-0.14,-0.629l-0.143,-0.63l-0.144,-0.628l-0.146,-0.628l-0.148,-0.627l-0.15,-0.626l-0.152,-0.626l-0.154,-0.625l-0.155,-0.624l-0.158,-0.623l-0.159,-0.623l-0.162,-0.622l-0.163,-0.621l-0.165,-0.62l-0.166,-0.62l-0.169,-0.619l-0.171,-0.618l-0.172,-0.617l-0.174,-0.616l-0.177,-0.616l-0.178,-0.615l-0.179,-0.615l-0.182,-0.613l-0.184,-0.613l-0.185,-0.611l-0.187,-0.611l-0.189,-0.611l-0.191,-0.609l-0.193,-0.609l-0.194,-0.607l-0.196,-0.608l-0.198,-0.606l-0.2,-0.605l-0.202,-0.605l-0.203,-0.603l-0.206,-0.603l-0.207,-0.603l-0.209,-0.601l-0.21,-0.6l-0.213,-0.6l-0.214,-0.599l-0.216,-0.597l-0.218,-0.597l-0.22,-0.597l-0.221,-0.595l-0.223,-0.595l-0.225,-0.593l-0.227,-0.593l-0.228,-0.592l-0.23,-0.591l-0.232,-0.59l-0.234,-0.589l-0.235,-0.589l-0.238,-0.588l-0.238,-0.586l-0.241,-0.586l-0.242,-0.585l-0.245,-0.584l-0.246,-0.583l-0.247,-0.582l-0.249,-0.581l-0.251,-0.581l-0.253,-0.58l-0.254,-0.578l-0.257,-0.578l-0.258,-0.577l-0.259,-0.575l-0.261,-0.576l-0.263,-0.574l-0.265,-0.572l-0.266,-0.573l-0.268,-0.571l-0.27,-0.57l-0.271,-0.569l-0.273,-0.569l-0.275,-0.567l-0.276,-0.567l-0.279,-0.565l-0.279,-0.565l-0.282,-0.563l-0.283,-0.563l-0.284,-0.562l-0.287,-0.56l-0.288,-0.56l-0.29,-0.559l-0.291,-0.558l-0.293,-0.556l-0.294,-0.556l-0.297,-0.555l-0.298,-0.554l-0.299,-0.553l-0.301,-0.552l-0.303,-0.55l-0.304,-0.55l-0.306,-0.549l-0.308,-0.548l-0.309,-0.547l-0.311,-0.545l-0.312,-0.545l-0.314,-0.544l-0.316,-0.543l-0.317,-0.541l-0.319,-0.541l-0.32,-0.539l-0.322,-0.539l-0.323,-0.537l-0.325,-0.537l-0.327,-0.535l-0.328,-0.534l-0.33,-0.534l-0.332,-0.532l-0.332,-0.531l-0.335,-0.53l-0.336,-0.529l-0.337,-0.528l-0.34,-0.527l-0.34,-0.526l-0.343,-0.524l-0.343,-0.524l-0.346,-0.523l-0.347,-0.521l-0.348,-0.52l-0.35,-0.52l-0.351,-0.518l-0.353,-0.517l-0.355,-0.516l-0.356,-0.515l-0.357,-0.513l-0.359,-0.513l-0.36,-0.511l-0.362,-0.51l-0.364,-0.51l-0.365,-0.508l-0.366,-0.507l-0.368,-0.505l-0.37,-0.505l-0.371,-0.503l-0.372,-0.503l-0.374,-0.501l-0.375,-0.5l-0.377,-0.499l-0.378,-0.497l-0.38,-0.497l-0.381,-0.496l-0.383,-0.494l-0.384,-0.493l-0.385,-0.492l-0.387,-0.49l-0.389,-0.49l-0.39,-0.488l-0.391,-0.487l-0.393,-0.486l-0.394,-0.484l-0.395,-0.484l-0.397,-0.483l-0.399,-0.48l-0.399,-0.48l-0.402,-0.479l-0.402,-0.477l-0.405,-0.477l-0.405,-0.475l-0.407,-0.473l-0.408,-0.473l-0.41,-0.471l-0.411,-0.47l-0.412,-0.469l-0.414,-0.468l-0.415,-0.466l-0.417,-0.465l-0.418,-0.464l-0.419,-0.462l-0.421,-0.462l-0.422,-0.46l-0.423,-0.458l-0.425,-0.458l-0.426,-0.456l-0.428,-0.455l-0.429,-0.454l-0.43,-0.452l-0.431,-0.451l-0.433,-0.45l-0.434,-0.449l-0.436,-0.447l-0.437,-0.446l-0.438,-0.444l-0.439,-0.444l-0.441,-0.442l-0.442,-0.44l-0.444,-0.439l-0.444,-0.438l-0.447,-0.437l-0.447,-0.435l-0.448,-0.435l-0.45,-0.432l-0.452,-0.432l-0.452,-0.43l-0.454,-0.428l-0.455,-0.428l-0.456,-0.426l-0.458,-0.424l-0.459,-0.424l-0.46,-0.422l-0.461,-0.42l-0.463,-0.419l-0.464,-0.418l-0.465,-0.417l-0.467,-0.415l-0.468,-0.413l-0.468,-0.413l-0.471,-0.411l-0.471,-0.409l-0.473,-0.408l-0.474,-0.407l-0.475,-0.405l-0.476,-0.404l-0.478,-0.403l-0.479,-0.401l-0.48,-0.4l-0.481,-0.398l-0.482,-0.397l-0.484,-0.396l-0.485,-0.393l-0.486,-0.393l-0.487,-0.391l-0.489,-0.39l-0.489,-0.388l-0.491,-0.387l-0.492,-0.386l-0.493,-0.384l-0.495,-0.382l-0.495,-0.381l-0.497,-0.38l-0.498,-0.378l-0.499,-0.377l-0.5,-0.375l-0.501,-0.374l-0.503,-0.372l-0.504,-0.371l-0.504,-0.369l-0.506,-0.368l-0.507,-0.366l-0.509,-0.365l-0.509,-0.363l-0.51,-0.362l-0.512,-0.361l-0.513,-0.358l-0.514,-0.358l-0.515,-0.356l-0.516,-0.354l-0.517,-0.353l-0.518,-0.351l-0.519,-0.35l-0.521,-0.348l-0.522,-0.347l-0.522,-0.345l-0.524,-0.344l-0.525,-0.342l-0.526,-0.341l-0.527,-0.339l-0.528,-0.337l-0.529,-0.336l-0.53,-0.334l-0.532,-0.333l-0.532,-0.332l-0.534,-0.329l-0.534,-0.328l-0.536,-0.327l-0.536,-0.325l-0.538,-0.323l-0.539,-0.322l-0.54,-0.32l-0.54,-0.319l-0.542,-0.317l-0.543,-0.316l-0.544,-0.314l-0.545,-0.312l-0.546,-0.311l-0.547,-0.309l-0.548,-0.307l-0.549,-0.306l-0.55,-0.304l-0.551,-0.303l-0.552,-0.301l-0.553,-0.299l-0.554,-0.298l-0.555,-0.296l-0.556,-0.295l-0.557,-0.293l-0.558,-0.291l-0.559,-0.289l-0.56,-0.288l-0.561,-0.287l-0.562,-0.284l-0.562,-0.283l-0.564,-0.282l-0.565,-0.279l-0.566,-0.278l-0.566,-0.277l-0.568,-0.274l-0.568,-0.273l-0.57,-0.272l-0.57,-0.269l-0.572,-0.268l-0.572,-0.266l-0.574,-0.265l-0.574,-0.263l-0.575,-0.261l-0.576,-0.26l-0.577,-0.257l-0.578,-0.257l-0.579,-0.254l-0.579,-0.252l-0.581,-0.251l-0.582,-0.25l-0.582,-0.247l-0.583,-0.246l-0.585,-0.244l-0.585,-0.242l-0.586,-0.241l-0.587,-0.239l-0.587,-0.237l-0.589,-0.235l-0.59,-0.234l-0.59,-0.232l-0.591,-0.23l-0.592,-0.228l-0.593,-0.227l-0.594,-0.225l-0.595,-0.223l-0.596,-0.221l-0.596,-0.22l-0.597,-0.217l-0.598,-0.216l-0.599,-0.214l-0.6,-0.213l-0.601,-0.211l-0.602,-0.208l-0.602,-0.207l-0.603,-0.206l-0.604,-0.203l-0.605,-0.202l-0.605,-0.2l-0.607,-0.198l-0.607,-0.196l-0.608,-0.194l-0.609,-0.193l-0.609,-0.191l-0.611,-0.189l-0.611,-0.187l-0.612,-0.185l-0.613,-0.184l-0.614,-0.181l-0.614,-0.18l-0.615,-0.178l-0.616,-0.176l-0.617,-0.174l-0.618,-0.173l-0.618,-0.17l-0.619,-0.169l-0.62,-0.167l-0.62,-0.164l-0.622,-0.164l-0.622,-0.161l-0.623,-0.159l-0.623,-0.158l-0.625,-0.155l-0.625,-0.154l-0.626,-0.152l-0.626,-0.15l-0.628,-0.148l-0.628,-0.146l-0.628,-0.144l-0.63,-0.142l-0.63,-0.141l-0.631,-0.138l-0.632,-0.137l-0.632,-0.134l-0.633,-0.133l-0.634,-0.131l-0.634,-0.129l-0.636,-0.127l-0.636,-0.125l-0.636,-0.123l-0.638,-0.121l-0.638,-0.119l-0.638,-0.118l-0.64,-0.115l-0.64,-0.113l-0.64,-0.112l-0.642,-0.109l-0.642,-0.108l-0.643,-0.105l-0.643,-0.104l-0.644,-0.102l-0.645,-0.099l-0.645,-0.098l-0.646,-0.096l-0.647,-0.093l-0.648,-0.092l-0.648,-0.09l-0.648,-0.087l-0.65,-0.086l-0.65,-0.084l-0.65,-0.082l-0.651,-0.079l-0.652,-0.078l-0.653,-0.076l-0.653,-0.074l-0.654,-0.071l-0.654,-0.07l-0.655,-0.067l-0.656,-0.066l-0.656,-0.064l-0.657,-0.061l-0.657,-0.06l-0.658,-0.057l-0.659,-0.056l-0.659,-0.053l-0.66,-0.051l-0.661,-0.049l-0.661,-0.048l-0.661,-0.045l-0.662,-0.043l-0.663,-0.041l-0.664,-0.039l-0.664,-0.037l-0.664,-0.034l-0.665,-0.033l-0.666,-0.031l-0.666,-0.028l-0.667,-0.027l-0.667,-0.024l-0.668,-0.022l-0.669,-0.02l-0.669,-0.018l-0.67,-0.016l-0.67,-0.014l-0.67,-0.012l-0.672,-0.009l-0.671,-0.008l-0.673,-0.005l-0.673,-0.003l-0.673,-0.001l-0.673,0.001Z" style="fill:#fcfcfc;"/></svg>